<svg xmlns="http://www.w3.org/2000/svg" xmlns:xlink="http://www.w3.org/1999/xlink" width="1129" height="750" viewBox="0 0 1128.79 749.55"><style><![CDATA[.B{fill:#419274}.C{opacity:.1}.D{fill:#fff}.E{fill:#3f3d56}.F{fill:#a1616a}.G{fill:#ff6f61}]]></style><defs><linearGradient id="A" x1="1027.71" y1="798.51" x2="1027.71" y2="475.8" gradientUnits="userSpaceOnUse"><stop offset="0" stop-color="gray" stop-opacity=".25"/><stop offset=".54" stop-color="gray" stop-opacity=".12"/><stop offset="1" stop-color="gray" stop-opacity=".1"/></linearGradient><path id="B" d="M797.14 46.94a7.54 7.54 0 0 0 1.36-4.2c0-9.1-18.58-16.5-41.5-16.5s-41.5 7.4-41.5 16.5a7.82 7.82 0 0 0 1.72 4.69c-25.52 2.85-42.72 8.2-42.72 14.3 0 9.1 38.06 16.5 85 16.5s85-7.4 85-16.5c0-6.5-19.3-12.1-47.36-14.8z"/><path id="C" d="M304.26 613.36a39.49 39.49 0 0 1 12.45 11.69H256.9a39.49 39.49 0 0 1 12.45-11.69c-13.846-9.02-18.548-27.098-10.85-41.72-4.2-3.12-6.7-7-6.7-11.1 0-10.5 15.9-19 35.5-19s35.5 8.5 35.5 19c0 4.38-2.77 8.4-7.42 11.62 7.322 14.56 2.534 32.294-11.12 41.2z"/><path id="D" d="M977.54 443.36l-3.34-1.33c-6.8-2.73-13.62-5.47-20.22-8.67-4.8-2.33-9.64-5.06-12.63-9.48-1-1.42-1.7-3-2.65-4.4a34.4 34.4 0 0 0-3.61-4.3l-8.9-9.52c-.67 1.27.2 2.77.9 4a17.48 17.48 0 0 1 1.65 4.2 1.94 1.94 0 0 1-.05 1.46c-.25.43-.78.6-1.22.85a4.27 4.27 0 0 0-1.83 4.92 5.49 5.49 0 0 0 4.11 3.54 7.62 7.62 0 0 1 1.84.45c1.07.52 1.58 1.73 2.35 2.65 1.4 1.66 3.65 2.3 5.75 2.83l10 11.1c5 5.68 10.08 11.45 16.58 15.3a24.09 24.09 0 0 0 7.5 3 120.87 120.87 0 0 1 3.79-16.6z"/></defs><g opacity=".2"><g class="E"><path d="M925.26 626.6q-11.34 6.82-23.13 13.23l-3.66 2q-8.87 4.75-18 9.24.07-.72.18-1.44a43.59 43.59 0 0 1 4.58-14.22 35.82 35.82 0 0 1 3.9-6c6-7.43 14.2-11.58 22.65-10.37a22 22 0 0 1 13.48 7.56z"/><path d="M939.12 615.18l-.57 3.16q-6.55 4.2-13.3 8.25-11.34 6.82-23.13 13.23l-3.66 2a24.36 24.36 0 0 1-4-3.69 31 31 0 0 1-5.31-8.69 43.32 43.32 0 0 1 6-41.93c6-7.43 14.2-11.58 22.65-10.37s15.2 7.52 18.82 16.32a41.79 41.79 0 0 1 2.49 21.72z"/><ellipse cx="954.53" cy="643.96" rx="34.66" ry="26.48" transform="matrix(.142283 -.989826 .989826 .142283 145.74 1422.71)"/></g><path d="M1096.3 222.9a126.31 126.31 0 0 1-19 50.84l-74.43-11.2 67.24 21.2a128.68 128.68 0 0 1-11.83 13c29.272 50.688 20.057 114.823-22.3 155.22a126.22 126.22 0 0 1 16.91 68.48c-31.63 36.8-70.22 69.83-114.33 98q-6.55 4.2-13.3 8.25-11.34 6.82-23.13 13.23a119.9 119.9 0 0 1-7.66-1.73 120.85 120.85 0 0 1-9.21-2.73c-42-14.287-73.5-49.49-83.032-92.828s4.275-88.505 36.412-119.102q-1.92-3.32-3.63-6.73l-1-2a126.22 126.22 0 0 1-12.2-61.9l.15-2.2.32-3.58c.18-1.68.4-3.37.63-5.06v-.16a125.93 125.93 0 0 1 12.38-39.15L926 348.4l-82.66-59.3a127 127 0 0 1 17.6-20.84c-23.752-41.1-22.564-92.024 3.08-131.973s71.448-62.232 118.706-57.75 88.058 34.978 105.735 79.034l-101.87 54.5 107.36-37.47a126.47 126.47 0 0 1 2.34 48.28z" class="B"/><path d="M1052.88 520.34c-31.63 36.8-70.22 69.83-114.33 98q-6.55 4.2-13.3 8.25-11.34 6.82-23.13 13.23a119.9 119.9 0 0 1-7.66-1.73 120.85 120.85 0 0 1-9.21-2.73c-41.973-14.302-73.43-49.486-82.96-92.793s4.248-88.446 36.34-119.047q-1.92-3.32-3.63-6.73l-1-2a126.22 126.22 0 0 1-12.2-61.9l.15-2.2.32-3.58c.18-1.68.4-3.37.63-5.06v-.16c.78-2.7 11.1-.43 26.82 5l3.32 1.18 11.1 4.14c8.5 3.28 17.9 7.15 27.83 11.43l.65.28 1.38.6c66.7 28.92 154.44 75.32 141.86 87.3a126.22 126.22 0 0 1 17.02 68.53z" class="C"/></g><g opacity=".2"><g class="E"><path d="M318.92 682.67q-6.3-2.17-12.5-4.48-14.46-5.32-28.47-11.25a20.79 20.79 0 0 1 6.35-3.52c8.33-2.86 17.48-.13 24.93 6.45a42.3 42.3 0 0 1 9.7 12.8z"/><path d="M309.22 669.87a33.41 33.41 0 0 1-2.81 8.32q-14.46-5.32-28.47-11.25-12.2-5.13-24-10.7a45.51 45.51 0 0 1-.46-7.21 40.42 40.42 0 0 1 .8-7.48c2-9.83 7.66-17.66 16-20.52s17.48-.13 24.93 6.46a39.43 39.43 0 0 1 4.94 5.26 46.59 46.59 0 0 1 7.48 14.08 45.05 45.05 0 0 1 1.59 23.05z"/><ellipse cx="303.27" cy="687.79" rx="27.32" ry="36.55" transform="matrix(.953507 -.301372 .301372 .953507 -228.78 48.89)"/><ellipse cx="289.21" cy="645.38" rx="27.32" ry="36.55" transform="matrix(.953507 -.301372 .301372 .953507 -216.65 42.68)"/></g><path d="M300.1 632.74q-4.17 2.44-8.56 4.57a129.57 129.57 0 0 1-14.53 6 127.24 127.24 0 0 1-13.81 3.91q-4.87 1.1-9.75 1.8-6.06.87-12.1 1.14c-48.32-24-91.7-53.36-128.72-86.9-.53-1.42-1-2.85-1.5-4.3a136.3 136.3 0 0 1 .46-87.6 133.67 133.67 0 0 1-52.52-69.38 136.77 136.77 0 0 1-7-43H156.8L53.1 342.4a136 136 0 0 1 6.44-28 133.61 133.61 0 0 1-52.52-69.38c-23.26-70.1 13.3-146 81.68-169.54 45.77-15.74 94.18-4 128.17 26.5l-68.15 99.76 81.14-86.32a135 135 0 0 1 24.72 44.42 136.59 136.59 0 0 1 6.28 57l-73.63 24.68 71.7-11.93a135.2 135.2 0 0 1-4.81 17.84 133.65 133.65 0 0 1 52.52 69.37 136.8 136.8 0 0 1 7 41.84v4.8a136 136 0 0 1-7.41 41 132 132 0 0 1 27 24.05c.2.22.4.44.57.67a134.83 134.83 0 0 1 24.91 44.65c20.47 61.7-5.44 127.93-58.6 158.92z" class="B"/><path d="M300.1 632.74q-4.17 2.44-8.56 4.57a129.57 129.57 0 0 1-14.53 6 127.24 127.24 0 0 1-13.81 3.91q-4.87 1.1-9.75 1.8-6.06.87-12.1 1.14c-48.32-24-91.7-53.36-128.72-86.9-.53-1.42-1-2.85-1.5-4.3a136.3 136.3 0 0 1 .46-87.6 133.67 133.67 0 0 1-52.52-69.38c-3.6-10.8 146.12-19.54 214.33-11.17l1.6.2c20.7 2.67 33.4 7 31.2 13.4a132 132 0 0 1 27 24.05c.2.22.4.44.57.67a134.83 134.83 0 0 1 24.91 44.65c20.5 61.73-5.4 127.96-58.57 158.95z" class="C"/></g><g class="B"><path d="M612.22 111.9a4.82 4.82 0 0 0 .86-2.65c0-5.74-11.7-10.4-26.15-10.4s-26.15 4.65-26.15 10.4a4.93 4.93 0 0 0 1.08 3c-16.07 1.8-26.9 5.16-26.9 9 0 5.75 24 10.4 53.55 10.4s53.56-4.65 53.56-10.4c0-4.1-12.17-7.65-29.84-9.35z" class="C"/><use xlink:href="#B" class="C"/><use xlink:href="#B" x="-333" class="C"/></g><path d="M358.93 133.1c2.33-1.35 5.48-.06 7.08 2.1s2.05 5 2.45 7.63c.9 5.9 1.54 12.7-2.45 17.16 6.52-19.77 25.27-34.92 46-37.13m208.4-87.8c1.5-.87 3.52 0 4.55 1.35a10.83 10.83 0 0 1 1.58 4.91c.57 3.8 1 8.16-1.58 11a35.88 35.88 0 0 1 29.55-23.81M885.4 8.07c1.5-.87 3.52 0 4.55 1.35a10.83 10.83 0 0 1 1.58 4.91c.57 3.8 1 8.16-1.58 11A35.88 35.88 0 0 1 919.5 1.52" class="C" fill="none" stroke="#419274" stroke-miterlimit="10" stroke-width="3"/><ellipse cx="581.79" cy="705.05" rx="547" ry="44.5" class="B C"/><rect x="137.79" y="194.55" width="876" height="502" rx="18.47" class="D"/><path d="M1013.8 213.02v26.5h-876v-26.5a18.47 18.47 0 0 1 18.47-18.5h839.06a18.47 18.47 0 0 1 18.47 18.5z" class="E"/><g opacity=".6"><rect x="202.29" y="312.05" width="174" height="118" rx="16.87" class="B"/><path d="M272.34 413.36c-12.896-8.39-17.995-24.772-12.14-39-9.818-13.66-8.172-32.446 3.873-44.19s30.867-12.913 44.273-2.75 17.366 28.6 9.313 43.37c8.298 14.703 3.746 33.324-10.4 42.54a40.76 40.76 0 0 1 15.93 17.69h-66.8a40.76 40.76 0 0 1 15.94-17.66z" class="D"/></g><rect x="482.29" y="506.05" width="174" height="118" rx="16.87" class="B"/><path d="M586.26 613.36a39.49 39.49 0 0 1 12.45 11.69H538.9a39.49 39.49 0 0 1 12.45-11.69c-12.896-8.39-17.995-24.772-12.14-39-9.818-13.66-8.172-32.446 3.873-44.19s30.867-12.913 44.273-2.75 17.366 28.6 9.313 43.37c8.298 14.703 3.746 33.324-10.4 42.54z" class="D"/><g opacity=".6"><rect x="482.29" y="312.05" width="174" height="118" rx="16.87" class="B"/><path d="M603.15 380.1a32 32 0 0 1-13.89 33.26 40.76 40.76 0 0 1 15.93 17.69h-66.8a40.76 40.76 0 0 1 15.93-17.69 32 32 0 0 1-13.22-35.84 11.38 11.38 0 0 1-1.31.07c-6.934-.07-12.592-5.57-12.86-12.5s4.95-12.848 11.86-13.45a12.87 12.87 0 0 1-1-5.05 13 13 0 0 1 25.17-4.53 13 13 0 0 1 15.33-1.72 13 13 0 0 1 18.5 6.18c7.057-.002 12.826 5.626 13 12.68a13 13 0 0 1-6.63 20.87z" class="D"/></g><g opacity=".6"><rect x="775.29" y="506.05" width="174" height="118" rx="16.87" class="B"/><path d="M896.15 580.1a32 32 0 0 1-13.89 33.26 39.49 39.49 0 0 1 12.45 11.69H834.9a39.49 39.49 0 0 1 12.45-11.69 32 32 0 0 1-13.23-35.84 11.38 11.38 0 0 1-1.31.07c-6.934-.07-12.592-5.57-12.86-12.5s4.95-12.848 11.86-13.45a12.87 12.87 0 0 1-1-5.05 13 13 0 0 1 25.17-4.53 13 13 0 0 1 15.33-1.72 13 13 0 0 1 18.5 6.18c7.057-.002 12.826 5.626 13 12.68a13 13 0 0 1-6.63 20.87z" class="D"/></g><rect x="775.29" y="312.05" width="174" height="118" rx="16.87" class="B"/><path d="M895.2 431.05h-66.8a40.76 40.76 0 0 1 15.93-17.69c-13.846-9.02-18.548-27.098-10.85-41.72-4.2-3.12-6.7-6.95-6.7-11.1 0-10.5 15.9-19 35.5-19s35.5 8.5 35.5 19c0 4.38-2.77 8.4-7.42 11.62 7.322 14.56 2.534 32.294-11.12 41.2a40.76 40.76 0 0 1 15.94 17.69z" class="D"/><g opacity=".6"><g class="B"><rect x="202.29" y="506.05" width="174" height="118" rx="16.87"/><use xlink:href="#C"/><rect x="202.29" y="506.05" width="174" height="118" rx="16.87"/></g><use xlink:href="#C" class="D"/></g><path d="M1091 764.84a23.16 23.16 0 0 0-5.39-3 1 1 0 0 0-.46-.12 83 83 0 0 1-11.11-9.58l2.1-1.7c-4.4-2.08-6.77-6.83-9.13-11.12a109.37 109.37 0 0 0-24.2-30.16c-.24-.93-1.64-.74-2.4-1.32a2 2 0 0 1-.53-1.86c.12-.67.42-1.28.6-1.94a13.11 13.11 0 0 0-.12-4.71c-.17-1.58-.1-3.33.94-4.5.34-.4.76-.68 1.1-1.07a4.13 4.13 0 0 0 .75-3.26 11.56 11.56 0 0 0-.76-3.31l10.67-29.1c2.5-6.78 5-13.7 5.25-20.94.2-5.77-1.3-11.84-4.8-16.27l1.92-.5c-4.16-5.5-4.6-12.8-4.72-19.72q-.07-5.2-.35-10.38a37.92 37.92 0 0 0 3.67 1.4c.4.13.77.25 1.16.36a39.13 39.13 0 0 0 5.76 1.24c.86.12 1.73.2 2.6.27l-3.75-9.4a13 13 0 0 1-1.16-4.41v-.3a4.53 4.53 0 0 1 0-.52 6 6 0 0 1 .28-1.22 5.83 5.83 0 0 1 .23-.58 11.49 11.49 0 0 1 .92-1.63c.27-.4.56-.78.85-1.17a16 16 0 0 0 2.6-4.23 7.8 7.8 0 0 0 .41-2.4 12.72 12.72 0 0 0-.22-2.46 25.28 25.28 0 0 0-.38-1.61l-.3-1a2 2 0 0 0-.08-.26c-.08-.25-.17-.5-.25-.73l-.1-.24a24.63 24.63 0 0 0-.29-.78l-.06-.16c-1.4-3.56-3.23-7-4.33-10.62a27.91 27.91 0 0 1-.72-3l-.12-.77c0-.22-.07-.44-.1-.65l-.1-.76c0-.24-.05-.48-.07-.72s0-.46 0-.7v-3.35c0-.33 0-.66.08-1v-.47c0-.48.1-1 .2-1.44l.24-1.3a16.9 16.9 0 0 0 .41-3.66v-.7l-.1-.58a1 1 0 0 1 0-.17c0-.13-.06-.26-.1-.4s0-.13 0-.2l-.12-.37-.06-.17-.16-.4-.06-.12c-.07-.16-.15-.32-.23-.47a10.54 10.54 0 0 0-1-1.51c-2.38-3.14-6.36-5.53-8.54-9a20.12 20.12 0 0 1-2.45-7.23c-.1-.58-.2-1.16-.3-1.74l-.3-1.7-.2-1a1.89 1.89 0 0 1 0-.23l-.18-.84v-.2l-.2-.87V504a15.27 15.27 0 0 0-.24-.91v-.1l-.28-1v-.06l-.3-1c-.12-.34-.23-.68-.36-1-.12-.35-.25-.68-.4-1a26.67 26.67 0 0 0-3.67-6.52c-3.33-4.27-8.47-7.34-13.83-7.13a27.47 27.47 0 0 0-8.3 2.1l-7 2.58 1.95-.9a16.63 16.63 0 0 0-5.94 1.27 5.77 5.77 0 0 0-3.45 4.72c0 1.2.43 2.4.28 3.58-.25 2-2.06 3.3-3 5.05a6.43 6.43 0 0 0-.72 3.41v.47a.49.49 0 0 1 0 .12v.23c-2.92-1.26-5.83-2.58-8.7-4-4.8-2.36-9.65-5.13-12.64-9.6-1-1.44-1.7-3-2.65-4.46a35.19 35.19 0 0 0-3.62-4.36l-8.9-9.65c-.68 1.3.2 2.8.88 4.08a17.5 17.5 0 0 1 1.65 4.26 2 2 0 0 1 0 1.48 2.94 2.94 0 0 1-1.22.87 4.34 4.34 0 0 0-1.84 5 5.5 5.5 0 0 0 4.11 3.59 7.7 7.7 0 0 1 1.85.45c1.07.54 1.58 1.76 2.34 2.7 1.4 1.68 3.66 2.32 5.77 2.87l10 11.25c5 5.76 10.1 11.6 16.6 15.5.67.4 1.36.78 2.06 1.13v.35a3.93 3.93 0 0 0 .32 2.54 4 4 0 0 0 2.85 1.39l4.92.88c0 .63-.13 1.27-.24 1.9l-.22 1.14-.1.5a.17.17 0 0 1 0 .07c0 .13 0 .26-.05.4s0 .1 0 .14v.5a3.65 3.65 0 0 0 0 .47c.17 1.94 1.5 3.53 2.73 5a27.89 27.89 0 0 1 .7.83 11.82 11.82 0 0 0-2.25 4.71 15.49 15.49 0 0 0-.31 3.27 5.79 5.79 0 0 0-1.5 2.26 10.53 10.53 0 0 0-.37 3.67v1.45a12.18 12.18 0 0 0 .84 5.1l.2.37c-1.1 2.14-2.94 3.8-4.2 5.84a12.63 12.63 0 0 0 1.15 14.43c1 1.15 2.28 2.26 2.4 3.78a13.06 13.06 0 0 1-.2 2.06c-.12 1.64.64 3.2 1.05 4.8a5 5 0 0 1-.4 4 5.76 5.76 0 0 0-1 3.81c.36 2.06-.5 4.1-.63 6.2-.07.9 0 1.8-.08 2.7a15.69 15.69 0 0 1-.78 2.47l-.07.28c-1.8.8-3.58 1.6-5.3 2.56a4.74 4.74 0 0 0-2.21 2 5.19 5.19 0 0 0-.11 2.77q.76 5.37 1.55 10.75c-.1 0-.18-.08-.28-.12l.38 5.3a7.08 7.08 0 0 0 1 3.84 10.68 10.68 0 0 1 1.1 1.41c.6 1.23-.12 2.67-.66 3.93s-.72 3.06.46 3.74a9.69 9.69 0 0 0 2 1.06c-1.47 6-.12 12.4 1.24 18.48l3.1 13.92a34.47 34.47 0 0 1 .69 6v.87a33.79 33.79 0 0 0 1.46 8.15c1.6 5.43.07 12 .57 17.86a54 54 0 0 0 1.7 8.43c3.5 13.9 6.63 27.54 7.84 41.84a10.55 10.55 0 0 0 5 3.51c-.15 1.76 0 3.76 0 4.8a8.43 8.43 0 0 1-.4 2.5 6 6 0 0 1-3.79 3.23c-.5.17-1 .3-1.55.44l.58-.5a12.93 12.93 0 0 0-9.61 1.66 3.87 3.87 0 0 0-1.91 2.25 3.64 3.64 0 0 0 .67 2.61 11.92 11.92 0 0 0 6.71 4.77 35 35 0 0 0 8.28 1.15l5.13.3a1.39 1.39 0 0 0 .34 1.82 3.52 3.52 0 0 0 1.87.69 24 24 0 0 0 6.33.09 2.46 2.46 0 0 0 1.45-.52.94.94 0 0 0 0-1.39 1.54 1.54 0 0 0 1.4-1 4.17 4.17 0 0 0 .18-1.83c-.13-2.4-.35-5.87-1.6-8a2 2 0 0 0-2.24-1 88.42 88.42 0 0 1-1.42-12.88 32.35 32.35 0 0 0 3.74-1.69c-3.57-5.75-3.67-13.06-2.55-19.76a57.75 57.75 0 0 0 1-6.4c.24-4.27-.4-9.13-2.78-12.67a45.37 45.37 0 0 1 11.33 10.25c5 6.52 8.08 14.45 14.22 19.9l2.45-2.35c1.3 2.2 2.54 4.45 3.7 6.73a25.09 25.09 0 0 1 2.13 5.31 24.35 24.35 0 0 1 .2 8.56 87.18 87.18 0 0 1-.62 4.51 12.49 12.49 0 0 1-.44 1.88 1.44 1.44 0 0 0-.14-.56c-.4-.68-1.4-.37-2 .1a9 9 0 0 0-2.51 2.94 3.13 3.13 0 0 0-.45 1.85 2.72 2.72 0 0 0 1.43 1.82c2.7 1.58 6.07.44 9-.73a10.2 10.2 0 0 0 2.26-1.14c1.42-1 2.25-2.77 3.7-3.78a20.55 20.55 0 0 0 2.23-1.42c1.34-1.22 1.5-3.3 2.43-4.85 1.63-2.68 5.27-3.36 6.7-6.2 1.52-3.2-.4-7.16-2.9-9.2z" transform="translate(-35.6 -74.48)" fill="url(#A)"/><path d="M992.8 703.14a7.88 7.88 0 0 1-.39 2.47 6 6 0 0 1-3.8 3.18c-1.6.56-3.32.74-5 1.22a4.34 4.34 0 0 0-1.94 1c-1.42 1.43-.58 4.07 1.12 5.15s3.86 1 5.88.9a77.79 77.79 0 0 0 12.72-1.81c1.5-.35 3.27-1.06 3.5-2.58a4 4 0 0 0-.12-1.45 85.14 85.14 0 0 1-1.62-15.77c0-.34-8.43-.56-9.22-.06-1.7 1.12-1.04 5.95-1.14 7.74zm37.54-18.5l3.93 7.07a19.52 19.52 0 0 1 2.33 13.67 89.91 89.91 0 0 1-.62 4.45c-.24 1.45-.63 3.1-1.87 3.94a4.32 4.32 0 0 0 3.7.33 10.66 10.66 0 0 0 3.26-2c6.22-5.13 10.92-12.6 11.12-20.66a3.14 3.14 0 0 0-.34-1.82 3.54 3.54 0 0 0-1.09-1 83.69 83.69 0 0 1-12.87-10.81 1.19 1.19 0 0 0-1.78-.36c-2.4 1.2-6.38 2.9-7.38 5.62a3.88 3.88 0 0 1 1.61 1.57z" class="F"/><path d="M1001.4 711.57c-5.23 2.2-10.92 3-16.54 3.7a2.28 2.28 0 0 1-2-.37 1.52 1.52 0 0 1-.13-1.69 4.54 4.54 0 0 1 1.21-1.34l3.76-3.14a13 13 0 0 0-9.6 1.64 3.78 3.78 0 0 0-1.91 2.22 3.54 3.54 0 0 0 .67 2.57 11.86 11.86 0 0 0 6.71 4.7 34.72 34.72 0 0 0 8.27 1.14l5.1.3a1.39 1.39 0 0 0 .34 1.8 3.71 3.71 0 0 0 1.88.67 24.76 24.76 0 0 0 6.32.09 2.46 2.46 0 0 0 1.45-.52.91.91 0 0 0 0-1.36 1.51 1.51 0 0 0 1.39-1 4.07 4.07 0 0 0 .19-1.81c-.14-2.35-.35-5.78-1.6-7.86s-3.85-.48-5.53.25zm53.87-20.77a23.92 23.92 0 0 0-5.38-3 .64.64 0 0 0-1 .25 55.12 55.12 0 0 0-7.93 15.3c-1 3.12-1.86 6.44-4 9-.28.33-.7.67-1.1.48s-.2-1.16-.5-1.7-1.4-.36-2 .1a8.84 8.84 0 0 0-2.5 2.9 3 3 0 0 0-.45 1.82 2.68 2.68 0 0 0 1.42 1.79c2.7 1.56 6.07.44 9-.72a10.58 10.58 0 0 0 2.26-1.12c1.4-1 2.24-2.73 3.68-3.73a20.39 20.39 0 0 0 2.23-1.4c1.34-1.2 1.48-3.25 2.43-4.78 1.63-2.64 5.26-3.32 6.68-6.12 1.57-3.15-.35-7.06-2.83-9.08zm-40.52-145c5.7 4.3 8.1 11.9 7.86 19s-2.77 14-5.25 20.66q-5.34 14.34-10.66 28.7a11.57 11.57 0 0 1 .76 3.26 4 4 0 0 1-.75 3.21c-.33.4-.75.68-1.1 1.06a5.7 5.7 0 0 0-.94 4.45 12.79 12.79 0 0 1 .12 4.65c-.17.65-.47 1.26-.6 1.92a1.9 1.9 0 0 0 .53 1.83c.75.57 2.15.4 2.4 1.3a108.42 108.42 0 0 1 24.18 29.75c2.35 4.23 4.73 8.93 9.1 11a161.4 161.4 0 0 0-12.28 10.81c-6.14-5.37-9.2-13.2-14.2-19.62a45.2 45.2 0 0 0-11.32-10.12c2.38 3.5 3 8.3 2.78 12.5a56.53 56.53 0 0 1-1 6.31c-1.12 6.6-1 13.82 2.54 19.5-3.8 2-8.17 3.44-12.42 2.85a10.51 10.51 0 0 1-6.76-3.86c-1.2-14.1-4.33-27.56-7.84-41.3a51.33 51.33 0 0 1-1.69-8.3c-.5-5.84 1-12.27-.58-17.63a32.81 32.81 0 0 1-1.45-8v-.86a33.34 33.34 0 0 0-.69-5.89l-3.1-13.78c-1.35-6-2.7-12.26-1.24-18.23a10.41 10.41 0 0 1-2-1c-1.18-.68-1-2.44-.45-3.7s1.26-2.67.65-3.88a9.08 9.08 0 0 0-1.1-1.39 6.93 6.93 0 0 1-1-3.79l-.38-5.24a10.22 10.22 0 0 1 5.17 4.53c-2.86-4.43-1.44-10.75.66-15.58a7.09 7.09 0 0 1 6.67-5.28c11.7-2.05 25.92-6.98 35.37.13z" class="E"/><path d="M1009.45 575.6s-5.73 3.82-5.73 6.68-1.43 28.6-1.43 28.6V629s1 9.54 0 11.92 0 13.35 0 14.78 1.43-14.78 1.43-14.78v-17.17l1.43-39.1z" class="C"/><use xlink:href="#D" class="F"/><use xlink:href="#D" opacity=".15"/><path d="M971.4 462.32a4 4 0 0 1-2.85-1.37 3.87 3.87 0 0 1-.31-2.5 70.56 70.56 0 0 1 3.6-16c1.62 3 4.8 4.74 7.83 6.32a57.21 57.21 0 0 0 8.4 3.83c-.7-.23-2.5 10.94-3.5 11.63-1.27.9-4.3-.3-5.7-.55z" class="G"/><circle cx="979.16" cy="443.76" r="15.26" class="F"/><path d="M976.07 456.4s10 8.58 5.72 14.3-6.68 9.54-.95 10 24.8-9.54 24.8-9.54-17.64-14.3-14.78-22.9-14.78 8.13-14.78 8.13z" fill="#fbbebe"/><path d="M985.67 469.83a11.85 11.85 0 0 0-8.76 8.81c-1.12 5.15 1.27 10.86-1 15.63-1.06 2.25-3 3.93-4.35 6a12.3 12.3 0 0 0 1.15 14.24c1 1.13 2.27 2.23 2.38 3.73a12.69 12.69 0 0 1-.2 2c-.12 1.62.64 3.15 1 4.72a4.84 4.84 0 0 1-.4 3.91 5.64 5.64 0 0 0-1 3.76c.36 2-.5 4.05-.63 6.1-.07.9 0 1.78-.08 2.67a15.22 15.22 0 0 1-.53 2.48l-1.27 4.72a52.38 52.38 0 0 0 21.81 3.89c6.7-.13 13.32-1.52 19.88-2.9 2-.42 4-.84 6-1.38-4.15-5.44-4.6-12.63-4.7-19.46a289.31 289.31 0 0 0-2.55-34c2-3.8 2.9-8 3.73-12.25a20.54 20.54 0 0 0 .47-5.18c-.2-3.67-1.87-7.07-3.5-10.37-1.5-3-3.12-6.17-6.45-7.46a5.09 5.09 0 0 0-5 .54c-2.53 1.9-1.77 5.18-2.42 8-.85 3.62-4.2 6.23-7.76 7.3a25.4 25.4 0 0 1-8.16.76 1.44 1.44 0 0 1-1-2.38c1.2-1.32 2.37-2.64 3.36-3.87z" class="G"/><path d="M997.5 528.82c-5.65 4.62-11.36 9.28-17.9 12.55-3.82 1.9-7.9 3.33-11.63 5.4a4.63 4.63 0 0 0-2.21 2 5 5 0 0 0-.11 2.73l1.66 11.4c.45 3.1 3.42 5.06 5.83 7a4.12 4.12 0 0 1 .15-2.76 9.43 9.43 0 0 1 .56-.84 7.78 7.78 0 0 0 .8-5.36 29.44 29.44 0 0 1-.63-5.5 1.81 1.81 0 0 1 .77-1.6c8.1-3.9 16.84-6.9 25-10.6a26.23 26.23 0 0 0 6.08-3.45 9.32 9.32 0 0 0 3.53-5.85 1.22 1.22 0 0 0-.15-.9 1.26 1.26 0 0 0-.61-.36l-11.15-3.86z" class="F"/><path d="M981.8 480.93c-2.8.47-5.75 1.92-6.7 4.6a10.17 10.17 0 0 0-.37 3.61 12.09 12.09 0 0 0 .84 5 14.25 14.25 0 0 0 1.71 2.46c6.7 8.6 10.07 19.4 16.6 28.13.58.77 1.64 1.77 1.3 2.68a6.07 6.07 0 0 0-.31.69 1.45 1.45 0 0 0 .48 1.27 3 3 0 0 1 .79 1.15c.12.46-.18 1.06-.65 1 .78 2.43 3.2 3.84 5.46 5 3.8 1.9 8 3.4 12.2 3 .8-3.17 1.9-6.75 1.45-10a25.83 25.83 0 0 0-2.43-7.08l-2.84-6.2c-2.42-5.3-4.86-10.62-8.23-15.36a23.18 23.18 0 0 1-3-4.91c-.86-2.24-3.24-3.8-4.67-5.74-2.14-2.87-4.33-5.8-7.22-7.9-1.2-.82-3.03-1.65-4.43-1.4z" class="C"/><path d="M981.8 479.52c-2.8.47-5.75 1.92-6.7 4.6a10.15 10.15 0 0 0-.37 3.61 12.09 12.09 0 0 0 .84 5 14.25 14.25 0 0 0 1.71 2.46c6.7 8.6 10.07 19.4 16.6 28.13.58.77 1.64 1.77 1.3 2.68a6.07 6.07 0 0 0-.31.69 1.45 1.45 0 0 0 .48 1.27 3 3 0 0 1 .79 1.15c.12.46-.18 1.06-.65 1 .78 2.43 3.2 3.84 5.46 5 3.8 1.9 8 3.4 12.2 3 .8-3.17 1.9-6.75 1.45-10a25.83 25.83 0 0 0-2.43-7.08l-2.84-6.2c-2.42-5.3-4.86-10.62-8.23-15.37a22.87 22.87 0 0 1-3-4.9c-.86-2.24-3.24-3.8-4.67-5.74-2.14-2.87-4.33-5.8-7.22-7.9-1.2-.8-3.03-1.67-4.43-1.4z" class="G"/><path d="M975.4 418.7a17 17 0 0 0-5.94 1.25 5.7 5.7 0 0 0-3.44 4.67c0 1.18.43 2.35.28 3.53-.26 1.94-2.06 3.25-3 5-1.62 3-.36 6.8 1.75 9.47s5 4.68 7.12 7.3a18.91 18.91 0 0 1 3.94 15.19 11.82 11.82 0 0 0-.39 3.17c.17 1.9 1.5 3.48 2.73 4.94a225.76 225.76 0 0 1 17.22 22.91 61.12 61.12 0 0 1 4.24 7.24c1.24 2.6 2.17 5.38 3.9 7.68a20.08 20.08 0 0 0 5.71 4.9 40.3 40.3 0 0 0 18.29 5.9l-3.74-9.27a10.65 10.65 0 0 1-1.12-5.15c.4-3.33 3.78-5.53 4.88-8.7a10.74 10.74 0 0 0-.2-6.39c-1.32-4.7-4-8.93-5.4-13.6a27.74 27.74 0 0 1-.81-12.64 19.74 19.74 0 0 0 .59-5.6c-.7-5.67-7.35-8.38-10.43-13.2-2-3.1-2.37-6.9-3-10.52-1-5.28-2.7-10.55-6-14.76s-8.45-7.23-13.82-7a27.75 27.75 0 0 0-8.29 2.08l-7 2.54" class="E"/><path d="M1006.65 430.52c.6 3.26 1 6.68 2.5 9.6l-.6-3.4a42.66 42.66 0 0 0-2.34-8.32l.43 2.12zm12.88 29.35a27.73 27.73 0 0 0 .81 12.64 34.57 34.57 0 0 0 1.2 3.27 27.31 27.31 0 0 1-.1-9.71 19.74 19.74 0 0 0 .59-5.6 8.78 8.78 0 0 0-1.89-4.33c-.1 1.24-.4 2.5-.6 3.73zm8.1 32.43a33.55 33.55 0 0 0-1.43-4 8.77 8.77 0 0 1-.28 4.2c-1.1 3.17-4.47 5.37-4.88 8.7a10.63 10.63 0 0 0 1.13 5.15l.75 1.86a5.49 5.49 0 0 1 0-.81c.4-3.33 3.78-5.53 4.88-8.7a10.74 10.74 0 0 0-.17-6.4zm-20.02 17.4a20.08 20.08 0 0 1-5.71-4.9c-1.72-2.3-2.66-5.08-3.9-7.67a60.45 60.45 0 0 0-4.24-7.25 225.76 225.76 0 0 0-17.22-22.91l-.65-.78a7.41 7.41 0 0 0-.17 2c.17 1.9 1.5 3.48 2.73 4.94a225.76 225.76 0 0 1 17.22 22.91 61.12 61.12 0 0 1 4.24 7.24c1.24 2.6 2.17 5.38 3.9 7.68a20.08 20.08 0 0 0 5.71 4.9 40.3 40.3 0 0 0 18.29 5.9l-2.52-6.25a40.32 40.32 0 0 1-17.68-5.81zm-37.35-66.02c-2.16-2.62-5-4.62-7.12-7.3a21.4 21.4 0 0 1-.55-.77 10.51 10.51 0 0 0 2.46 7c2.1 2.68 5 4.68 7.12 7.3a18.18 18.18 0 0 1 2.16 3.32 18.87 18.87 0 0 0-4.07-9.56z" class="C"/><path d="M956.62 316.16l-5.06-5.1a2.68 2.68 0 0 0-3.81 0L916 342.52l-13.43-13.54a2.66 2.66 0 0 0-3.78 0l-5.1 5.05a2.72 2.72 0 0 0 0 3.82l20.4 20.55a2.72 2.72 0 0 0 3.82 0l38.74-38.46a2.68 2.68 0 0 0 0-3.78zm-294 188l-5.06-5.1a2.68 2.68 0 0 0-3.81 0L622 530.52l-13.43-13.54a2.66 2.66 0 0 0-3.78 0l-5.1 5a2.72 2.72 0 0 0 0 3.82l20.4 20.55a2.72 2.72 0 0 0 3.82 0l38.74-38.46a2.68 2.68 0 0 0 0-3.73z" fill="#3acc6c"/></svg>