<svg xmlns="http://www.w3.org/2000/svg" xmlns:xlink="http://www.w3.org/1999/xlink" width="1127" height="634" viewBox="0 0 1126.81 633.59"><style><![CDATA[.B{opacity:.1}.C{opacity:.2}.D{fill:#3f3d56}.E{fill:#419274}.F{opacity:.05}.G{fill:#65617d}.H{fill:#ae6e79}.I{fill:#ee8e9e}.J{fill:#ffcdd3}.K{fill:#444053}.L{fill:#4c4981}]]></style><defs><linearGradient id="A" x1="466.94" y1="739.84" x2="466.94" y2="527.44" gradientUnits="userSpaceOnUse"><stop offset="0" stop-color="gray" stop-opacity=".25"/><stop offset=".54" stop-color="gray" stop-opacity=".12"/><stop offset="1" stop-color="gray" stop-opacity=".1"/></linearGradient><linearGradient id="B" x1="857.889" y1="740.602" x2="840.917" y2="298.808" xlink:href="#A"/><linearGradient id="C" x1="197.37" y1="744.56" x2="197.37" y2="339.73" xlink:href="#A"/><path id="D" d="M603.03 403.38H680v2.72h-76.96z"/><path id="E" d="M496.22 574.73s-2.85 17.18-17.28 19.72-62.6 2-62.6 2-27.54-4-37.5-27.23-16.37-32.53-7.83-32.93 54.58 15.55 57.22 15.75 70.53-35.34 68 22.7z"/><path id="F" d="M452 592.52c.2 5.12 4.2 11.48 6.6 14.84 1.5 0 2.66-.1 2.66-.1s-.93-24.74-1.63-27.34c-.33-1.25-2-1-3.6-.35-1.97 3.7-4.2 8.82-4.02 12.95z"/><path id="G" d="M410.28 456.48L430.65 495c.6 1.14-1.05 3.2-3.7 4.62L325.28 553.4c-2.65 1.4-5.3 1.6-5.9.46L299 515.34c-.6-1.15.92-3.46 3.57-4.86l101.67-53.77c2.66-1.4 5.43-1.38 6.03-.23z"/><path id="H" d="M356.28 505.57l52.96-28.006.986 1.865-52.96 28.006z"/><path id="I" d="M878.16 136.14v56c0 1.67-3.12 3-7 3H723.4c-3.86 0-7-1.35-7-3v-56c0-1.67 3.12-3.37 7-3.37h147.78c3.86.03 6.98 1.7 6.98 3.37z"/><path id="J" d="M161.7 172.05v56c0 1.67-3.13 3-7 3H6.98c-3.86 0-7-1.35-7-3v-56c0-1.67 3.12-3.37 7-3.37h147.75c3.85 0 6.98 1.7 6.98 3.37z"/><path id="K" d="M70.97 188.68h76.96v2.72H70.97z"/><path id="L" d="M84.55 260.87a17.29 17.29 0 0 1 17.32-8.13v12.36H94.4l-5.92-1.53z"/><path id="M" d="M236.73 389.5l.32 3.38s-17-5.54-16.16-12.35 0-6 0-6l13.68 1.16z"/></defs><g class="E"><path d="M650.4 130.03c-70.76.54-138.73-15.45-203.73-33.27s-129.47-37.83-198.84-46c-44.62-5.28-95.4-4.45-130.48 16-33.75 19.66-43.73 51.88-48.66 81.62-3.7 22.38-5.52 45.86 7.54 66.23 9.07 14.13 24.7 25.73 35.68 39.2 38.26 46.84 14.54 107.1-23.4 155.5-17.77 22.67-38.57 44.5-52.1 68.5s-19.18 51.1-5.8 74.6c13.28 23.3 43.54 40.06 76.08 51.45 66.1 23.14 143.17 27.7 218.23 29.17 166.14 3.24 332.7-6.64 498.82-16.5 61.48-3.65 123.23-7.33 183.48-17.15 33.46-5.45 67.93-13.43 91.75-30.6 30.24-21.8 36.68-57.12 15-82.34-36.37-42.3-133-49.68-159-95.53-14.3-25.24-1.57-54.37 17-78.9 39.94-52.65 108.34-100 109.95-158.63 1.1-40.25-34-79.28-86.68-96.43-55.24-18-130.78-12.8-169.84 21.62-40.16 35.37-112.5 51.02-175 51.5z" class="B"/><path d="M928.97 550.93s-12.3-8.1-24.47-2.35c0 0 3.75 7.23 19.17 6.54zm1.5.43s3.74 14.24-5.63 23.93c0 0-5.64-5.87-.05-20.25zm15.32-13.66s-.9-12.1-28.26-8.1c0 0-.12 7.82 9.48 11.52s14 .58 18.78-3.42zm1.7-.1s11.56 3.7 1.25 29.36c0 0-7.62-1.7-9-11.9s2.74-13.74 7.75-17.45zm15.47-17.18s1.57-19.93-26.38-17.88c0 0-2 18 21.45 22.68zm18.43-22.5s-3.83-22.6-31.76-15.86c0 0-.1 19.53 27.2 21.24zm13.54-23.26s-6.42-22-34.1-15.42c0 0 6.6 19.8 32.26 19.48zm12.82-22.72s-6.27-22.83-33-16c0 0 8.92 21.7 31.23 19.87zm8.27-21.58s-4.82-27.92-29.74-21.74c0 0 7.23 25.4 27.9 25.8zm7.74-26.07s-5.78-28.15-31-20c0 0 9.9 26.6 29.22 23.85zm4.8-24.27s-9.2-28.14-28.68-27.38c0 0 9.4 29.73 27 33zm3.05-23.67s-10-33.88-25.87-31.27c0 0 6.93 25.9 25.3 36.55zm1.78-28.28s-9.37-28.23-25-29.36c0 0 6.37 27.78 24.68 36.7zm1.84-26.28s-11.7-28.26-22-28.9c0 0 5.08 27.83 21 33.54zm1.3-24.57s-7.18-30.7-17.52-33.24c0 0 1.4 25.1 16.48 35.54zm3.86-32.1s-7.56-24.46-15.93-28.2c0 0 1.66 28.84 14 34.18z"/><path d="M1043.66 224.07l1.53-43.14s-15.62 32.56-2.68 50.75zm12.1-42.87s11.26-31.5 14-33.26c0 0-22.1 20.44-19.94 46.73zm-92 339.08s19.82-2.6 19.22 25.42c0 0-17.9 2.9-23.75-20.25zm18.66-23.1s22.9-.07 21 28.6c0 0-19.22 3.43-25.57-23.18zm12.76-20.65s20.8-9.75 34.1 15.42c0 0-19.2 8.12-35.93-11.35zm13.06-24.36s21.3-10.37 33.8 14.2c0 0-22.17 7.64-35.54-10.32zm7.53-21.18s20.5-19.58 36.85.22c0 0-20.94 16.1-37.8 4.14zm6.85-27.35s20.62-20 36.84.92c0 0-23.14 16.43-37.57 3.28z"/><path d="M1026.47 379.23s15.88-25 34.57-19.4c0 0-16.47 26.47-34.4 25.3zm4.68-23.03s16-31.5 31.13-26c0 0-11.53 24.2-31.54 31.3zm1.1-29.73s16.45-24.78 31.86-21.76c0 0-13.45 25.13-33.45 28.93zm1.25-25.27s12.75-27.8 23.12-28c0 0-6.13 27.6-22.26 32.72zm2.53-24.57s14.17-28.17 24.82-28.22c0 0-7.25 24.08-24.35 30.7zm2.13-29.76s10.6-23.3 19.38-25.94c0 0-5.3 28.4-18.2 32.12zm6.76-23.62l23.7-36.08s-6.07 35.6-27.14 43zm16.26-39.15s27.54-19 28.53-22.08c0 0-14 26.62-40 31.32zm1.65-8.55s31.6-30.38 39.68-30.35c0 0-26.07 1.2-40.44 28.74z"/></g><g class="K"><path d="M1038.47 251.38l1.15.15c5.94-46.5 14.6-74 24.4-77.37l-.38-1.1c-10.38 3.6-19.08 30.68-25.16 78.32z"/><path d="M1029.74 362.55l1.74.15c.36-4.34.64-8.8.83-13.2 1.66-38.48 4.23-73.82 7.62-100.3l-1-1.25c-3.4 26.54-6.7 62.95-8.35 101.5-.18 4.38-.48 8.82-.84 13.13z"/><path d="M896.5 573.06c.3-.13 30.94-13.8 62.73-46.44a252.42 252.42 0 0 0 45.85-65c14.7-29.93 23.65-66.7 26.66-102.44l-1.82.85c-6.74 80.2-43.26 135-72.3 164.85-31.48 32.33-61.76 45.87-62.06 46z"/></g><path d="M969.85 31.2V549.6c0 15.4-14.87 28-33.23 28H233.25c-18.36 0-33.23-12.54-33.23-28V31.2c0-15.44 14.87-31.2 33.23-31.2l703.33 1.7c18.36 0 33.27 14.1 33.27 29.48z" fill="#fff"/><path d="M969.85 31.35v24H200.02v-24A31.35 31.35 0 0 1 231.4 0h707.1c17.3.006 31.34 14.04 31.34 31.35z" class="D"/><circle cx="237.32" cy="27.67" r="11.08" fill="#fa5959" opacity=".8"/><circle cx="269.55" cy="27.67" r="11.08" fill="#fed253" opacity=".8"/><circle cx="301.78" cy="27.67" r="11.08" fill="#8ccf4d" opacity=".8"/><g class="E"><path d="M653.4 189.8v56c0 1.67-3.13 3-7 3H498.68c-3.86 0-7-1.35-7-3v-56c0-1.67 3.12-3.37 7-3.37H646.4c3.88-.01 7 1.7 7 3.37z" class="C"/><path d="M562.67 206.42h76.96v2.72h-76.96z"/><path d="M523.73 200.46a18.25 18.25 0 0 0-10.06 33.47v-1.2a4.15 4.15 0 0 1 3.65-4.11 7.24 7.24 0 0 0 12.7 0 4.15 4.15 0 0 1 3.65 4.11v1.3a18.25 18.25 0 0 0-9.94-33.55zm7.16 23.14a7.23 7.23 0 0 1-14.43 0 7.92 7.92 0 0 1 4.15-10.61 2.46 2.46 0 0 1-.39-1.31 2.41 2.41 0 0 1 2.42-2.41h.17a2.41 2.41 0 0 0-2.24 2.4 2.44 2.44 0 0 0 .32 1.2h.07a2.61 2.61 0 0 1 0-.48 2.35 2.35 0 0 1 .46-1.4 2.4 2.4 0 0 1 2.3-1.7h.17a2.39 2.39 0 0 0-1.84 1.08 2.34 2.34 0 0 1 1.33-.4 2.41 2.41 0 0 1 2.41 2.41 2.45 2.45 0 0 1 0 .27 7.93 7.93 0 0 1 5.88 7.66 8.07 8.07 0 0 1-.78 3.29zm31.78-10.56h76.96v2.72h-76.96zm0 6.62h76.96v2.72h-76.96zm0 6.64h76.96v2.7h-76.96zM480 299.47v56c0 1.66-3.12 3-7 3H325.27c-3.86 0-7-1.36-7-3v-56c0-1.67 3.12-3.37 7-3.37H473c3.86 0 6.98 1.7 6.98 3.37z" class="C"/><path d="M389.25 316.1h76.96v2.72h-76.96z"/><path d="M350.32 310.13a18.25 18.25 0 0 0-10.06 33.48v-1.22a4.14 4.14 0 0 1 3.65-4.1 7.24 7.24 0 0 0 12.7 0 4.14 4.14 0 0 1 3.65 4.1v1.3a18.25 18.25 0 0 0-9.94-33.56zm7.15 23.14a7.23 7.23 0 0 1-14.43 0 8 8 0 0 1-.71-3.29 7.94 7.94 0 0 1 4.86-7.32 2.39 2.39 0 0 1-.38-1.3 2.42 2.42 0 0 1 2.41-2.42h.18a2.41 2.41 0 0 0-1.93 3.6h.08a2.42 2.42 0 0 1 0-.47 3.54 3.54 0 0 1 2.76-3.11h.1a2.42 2.42 0 0 0-1.84 1.08 2.39 2.39 0 0 1 1.32-.4 2.42 2.42 0 0 1 2.42 2.42 2.45 2.45 0 0 1 0 .27 7.92 7.92 0 0 1 5.16 11zm31.78-10.55h76.96v2.72h-76.96zm0 6.62h76.96v2.72h-76.96zm0 6.62h76.96v2.72h-76.96zm50.85-214.08v56c0 1.66-3.12 3-7 3H285.4c-3.85 0-7-1.36-7-3v-56c0-1.67 3.13-3.37 7-3.37h147.72c3.86 0 6.98 1.7 6.98 3.37z" class="C"/><path d="M349.36 138.5h76.96v2.72h-76.96z"/><path d="M349.36 145.13h76.96v2.72h-76.96zm0 6.62h76.96v2.72h-76.96zm0 6.62h76.96v2.72h-76.96zm-38.96-25.83a18.26 18.26 0 0 0-10 33.48v-3.1a4.15 4.15 0 0 1 3.65-4.11 7.24 7.24 0 0 0 12.7 0 4.14 4.14 0 0 1 3.65 4.11v3.16a18.25 18.25 0 0 0-10-33.55zm8 22.28a1.23 1.23 0 0 1-.24.31 1 1 0 0 1-.53.18h-.37a7.25 7.25 0 0 1-14.19-2.06 7.14 7.14 0 0 1 .95-3.56l-.08-.05a2.41 2.41 0 0 1 .24-3.35 4.82 4.82 0 0 1 1.5-.55 6.7 6.7 0 0 0 3.8-2.91 8 8 0 0 1 0 1.1 1.61 1.61 0 0 1 2.29-.08 4.6 4.6 0 0 0 .65.74 2 2 0 0 0 .81.23l1.82.23a3.48 3.48 0 0 1 2.07.75 3.28 3.28 0 0 1 .69 1.22 18.24 18.24 0 0 1 1.19 3.85 6.17 6.17 0 0 1-.55 3.93zM693.77 386.8v56c0 1.67-3.12 3-7 3H539.04c-3.86 0-7-1.35-7-3v-56c0-1.67 3.12-3.36 7-3.36H686.8c3.86-.05 6.98 1.64 6.98 3.36z" class="C"/><use xlink:href="#D"/><use xlink:href="#D" y="6.62" class="C"/><use xlink:href="#D" y="13.25" class="C"/><use xlink:href="#D" y="19.87" class="C"/><path d="M564.1 397.42a18.25 18.25 0 0 0-10.06 33.47v-3.1a4.15 4.15 0 0 1 3.65-4.1 7.24 7.24 0 0 0 12.7 0 4.14 4.14 0 0 1 3.65 4.1v3.17a18.25 18.25 0 0 0-9.94-33.55zm8 22.27a1.12 1.12 0 0 1-.24.32 1 1 0 0 1-.53.18h-.38a7.24 7.24 0 0 1-12.911 2.113 7.24 7.24 0 0 1-.319-7.733h-.08a2.41 2.41 0 0 1 .24-3.35 4.82 4.82 0 0 1 1.5-.55 6.69 6.69 0 0 0 3.8-2.9 8 8 0 0 1 0 1.1 1.61 1.61 0 0 1 2.29-.08 4.14 4.14 0 0 0 .65.73 1.91 1.91 0 0 0 .81.24l1.82.23a3.42 3.42 0 0 1 2.07.75 3.28 3.28 0 0 1 .69 1.22 18.06 18.06 0 0 1 1.19 3.85 6.14 6.14 0 0 1-.57 3.88z" class="C"/></g><path d="M556.16 703.48l-21.94-31.8s-.4-7.88-1.85-9.72-.3-5.93-.3-5.93 1.54-2.25.2-2.46-.2-5.22-.2-5.22l-.1-8s1.23-7.68.2-9.52a3 3 0 0 1 .1-3.27c0 0 1.23-4.4 0-5.53s-.93-8-.62-13.4-2.15-8.5-2.15-9.3-8.1-8.8-8.1-9.5-5.13-3.68-8.2-4.5-4.6-1.43-4.5-1.84-4.82-2-4.82-2-4.3-.3-5.95-2.45-6.65-2.78-6.8-2.8l-.1-.43-.1-.46a29.46 29.46 0 0 0 1.07-2 16.93 16.93 0 0 0 .28-.62 8.78 8.78 0 0 0 5.05-1.57 6.85 6.85 0 0 0 2.45-4.91 10.83 10.83 0 0 0-1.19-5.45c-.9-1.84-2.22-3.75-1.77-5.75.2-.86.72-1.62 1-2.46a6.5 6.5 0 0 0-.74-4.85c-.77-1.48-1.85-2.8-2.72-4.23a16.42 16.42 0 0 1-2.16-6 9.24 9.24 0 0 0-.8-3.26 6.24 6.24 0 0 0-1.8-1.82 18 18 0 0 0-11-3.34c-2.8.1-5.58.85-8.35.5a30.6 30.6 0 0 1-4.87-1.27c-3.44-1-7.4-1.44-10.4.53s-4.2 5.84-6.22 8.87c-1.8 2.67-4.42 4.92-5.8 7.76v-.17a9.86 9.86 0 0 0-.76 2.07 14.74 14.74 0 0 0 .45 6.78 4.72 4.72 0 0 0 1.66 3c1 .65 2.4.5 3.6.7a12.21 12.21 0 0 0-.14.58 23 23 0 0 0-.51 4.87A23.44 23.44 0 0 0 464 585.78v.62a16.37 16.37 0 0 1-.1 1.76c0 0-10.3-2.12-13.07-.68s-8.2 2.55-9 3.37-2.87.2-4.72 5-2.05 9.72-4.4 12-3.6 3.8-3.7 5.43.3 2-.6 2.55-2.26 2.66-1.85 3.48a2.9 2.9 0 0 1-1.13 3.07 3.41 3.41 0 0 0-1.43 3.07c0 0-.62 2.25-2.05 2.76s-2.36 3.9-2.36 3.9l-4.65 5.35-9.22-10.2a3.89 3.89 0 0 0-5.48-.28L395.7 631a8.94 8.94 0 0 0-4.53 2.7 11.75 11.75 0 0 0-2.34 3.49l-2.48 2.23a6.28 6.28 0 0 0-.64 6.95l5.9 6.53v.06a10.33 10.33 0 0 0-5.71 2.32c-8.8 7.78-8.92 14.94-7.58 18.2s12.5 15.86 12.5 15.86 6.5 8.44 15.86 12.93l-.07.07a8.75 8.75 0 0 0-.55.64l-.15.2a1.43 1.43 0 0 0-.14.2l-.17.24-.13.2-.18.3-.1.2-.2.4-.07.13c-.02.04-.17.37-.25.56l-.1.2c0 .13-.1.27-.16.4l-.1.27c0 .13-.1.26-.13.4l-.1.3q-.06.2-.12.45c0 .1-.05.18-.07.27l-.16.74a2.5 2.5 0 0 0 0 .29 4.51 4.51 0 0 0-.09.53c0 .12 0 .24-.05.37s-.05.33-.07.5 0 .25 0 .4v1.94c-.2 12 .5 13.7.5 13.7a6.64 6.64 0 0 0 5.44 4.08 7.17 7.17 0 0 0 1.76-.09c5.33-.93 17.84-3.07 22.25-2.25 2.65.5 7.56-.24 11.05-.9l.92-.18.64 2 2-.56 1.72 1 1.1.62c2 6.86 10.24 4.52 10.24 4.52l1.95 1.13 19.8.5a39.78 39.78 0 0 0 7 3.36 6.29 6.29 0 0 0 1 .22 44.38 44.38 0 0 0 5.51.1c1.52 0 2.7-.1 2.7-.1l-.5-11.4a161.45 161.45 0 0 0 18.33-1.5c10.57-1.86 15-11.47 16.6-16.6a46.9 46.9 0 0 1 1 6.37 46.46 46.46 0 0 0 1.64 5.52 18.45 18.45 0 0 0 2.26 4.1c7.8-2.66 3.07-6.65 1.43-8.4s1.13-3.17 1.13-3.17 2.16-1.44 2-2.77-.3-2.76 6.67-2.66 6.5-5.67 6.5-5.67zm-108.28-65.32c.1.6 1.06 6.9 1.94 8.55a10.9 10.9 0 0 1 .23 3.37c-4.13-.33-8.43-.5-8.43-.5a1 1 0 0 1 .22.53l-.65-.15-.95-.23 7.62-11.57zm-15.08 24l7.15 1.14.6.1a25.52 25.52 0 0 0-.37 3.38c0 .1.16.23.4.38a10.74 10.74 0 0 0-.14 1.69c.12.57 3.46 1.8 7.3 2.8-.06.2-.1.4-.16.58-3.4-1.78-8.72-2.6-9.34-3.93s-18.76-7.67-18.76-7.67-.67-.35-1.8-.9l4.78.9 1.3-.13a71.46 71.46 0 0 0 9.05 1.65z" transform="translate(-36.6 -133.2)" fill="url(#A)"/><use xlink:href="#E" class="G"/><use xlink:href="#E" class="F"/><path d="M367.03 593.8a6.59 6.59 0 0 0 5.37 4.1 7 7 0 0 0 1.74-.1c5.28-.9 17.68-3 22.05-2.23 2.63.5 7.5-.24 11-.9 2.3-.43 4-.84 4-.84s-4.06-13.52-4.57-13.92-18.33-11.12-18.33-11.12l-14.1-1a7.41 7.41 0 0 0-4.77 2.81c-1.5 1.8-2.77 4.75-2.85 9.6-.25 11.9.45 13.6.45 13.6z" class="D"/><path d="M367.03 593.8a6.59 6.59 0 0 0 5.37 4.1 57.66 57.66 0 0 1-3.82-5.58l.07-9.86a17.38 17.38 0 0 1 5.55-14.66c0 0-7.42.5-7.62 12.4s.45 13.6.45 13.6z" class="F"/><path d="M428.13 572.3l13.1-10.26 20.63-20.33-5.6-.25c-.84.53-3.18 2.2-3.27 4.25-.1 2.48-5.57.17-8.42 1.6s-16.77 19.24-19.2 19.13-4.37-1.24-5.38.5a1 1 0 0 1-.08.11zm-58.73-1.67l1.42.65c10 4.27 22.25 13.2 23.17 14.84.56 1 7.7 5.32 13.2 8.56 2.3-.43 4-.84 4-.84s-4.06-13.52-4.57-13.92-18.32-11.12-18.32-11.12l-14.1-1a7.41 7.41 0 0 0-4.8 2.83z" class="B"/><path d="M341.74 541.5c1.32 3.25 12.4 15.75 12.4 15.75s7 9.15 17 13.42 22.26 13.2 23.17 14.84c.6 1 8.53 5.82 14.12 9.1l1.26.73 2.77 1.6 1.47.84 6.8-5.48 6.73-5.6c.1-.3 1.42-3.76 1.1-4-.16-.1-.85-1.5-2.14-3.14a14.41 14.41 0 0 0-5.17-4.28 14.68 14.68 0 0 1-6.71-7s-.45-.32-1.12-.75a13.6 13.6 0 0 0-4.57-2c-2.24-.28-6.4-4.85-6.4-4.85a12.53 12.53 0 0 1-4-4.17c-1.07-2.23-16.83-13-18.3-14l47.4 30.36 13.1-10.26 20.63-20.33-6.8-.3c-10-.44-27.83-1.12-30.08-.6a17 17 0 0 1-5.59.36s-5.08.23-8.43-1.54-8.65-2.6-9.26-3.9-18.6-7.62-18.6-7.62-24.5-13-33.23-5.28-8.9 14.84-7.55 18.1z" class="G"/><path d="M420.7 466.9l3.15 10.47 4.06 23.58 14.94 1 8.64-14.33s2.7-9.53 4.63-18.75c1.7-8.15 2.82-16.07 1-16.93-1.65-.76-2.73-3.5-3.44-6.46a19.5 19.5 0 0 1-.24-1.1 57.52 57.52 0 0 1-1-7.58s-31.3-1.63-26.94 11.28a20.38 20.38 0 0 1 1.18 6.86 16.33 16.33 0 0 1-.1 1.75 14.63 14.63 0 0 1-5.88 10.21z" class="I"/><path d="M414.2 465.17l1.12 17.8 2.54 15.14 2.85 7 2.54 38.36s24.5 2.84 30.46 0a2.61 2.61 0 0 0 1.08-.84c7.2-10.87 4.84-42.35 4.84-42.35l2.77-20.36-1.83-10.55-7.83-.83s-.77.94-1.87 2.4c-3 4-8.56 11.8-8.2 15.07.5 4.47-.6 9-2.34 9.75s-3.15 1.94-3.45.72a5.5 5.5 0 0 1-.31-3.25c.3-1.73-1.32-7-1.32-7s-2.74-6.2-2.54-8.84-.3-5.7-1.12-6.4-1.93-1.43-1-4.68-4-9.58-4-9.58z" fill="#e3e8f4"/><path d="M446.57 509.6l1 30.4 5.87 3.26a2.54 2.54 0 0 0 1.08-.85c7.2-10.87 4.84-42.35 4.84-42.35l2.74-20.33-1.83-10.55-4.42-.47c1.7-8.15 2.83-16.06 1-16.92-1.65-.77-2.74-3.5-3.44-6.46l-3.18 21.5s.27 1.93.36 3.93a11.13 11.13 0 0 1-.26 3.79c-.7 1.83-.2 5.08-.2 5.08-1.83 3.23-2.75 9.2-3.2 15-.6 7.68-.37 15-.37 15z" class="B"/><path d="M453.5 444.8s5.12.64 6.74 2.77 5.9 2.44 5.9 2.44 4.88 1.63 4.77 2 1.43 1 4.48 1.83 8.13 3.76 8.13 4.48 8 8.63 8 9.45 2.43 3.86 2.13 9.25-.6 12.2.6 13.3 0 5.5 0 5.5a3 3 0 0 0-.1 3.25c1 1.83-.2 9.45-.2 9.45l.1 7.93s-1.12 5 .2 5.18-.2 2.44-.2 2.44-1.12 4.07.3 5.9 1.83 9.65 1.83 9.65l21.75 31.6s.3 5.8-6.6 5.7-6.8 1.32-6.6 2.64-1.93 2.75-1.93 2.75-2.75 1.42-1.12 3.15 6.3 5.7-1.42 8.33a18.38 18.38 0 0 1-2.24-4.06 47.34 47.34 0 0 1-1.63-5.49s-.7-7.73-2.13-8.74-1.22-5.9-1.22-5.9 2-4-.8-5.6l-44.1-24.5-1-30.4s-.7-22.46 3.56-30c0 0-.5-3.25.2-5.08s-.1-7.73-.1-7.73z" class="D"/><path d="M426.86 457.02s-10.22-2.1-13-.7-8.13 2.54-8.94 3.36-2.85.2-4.68 5-2 9.65-4.37 11.9-3.56 3.76-3.66 5.38.3 2-.6 2.54-2.23 2.65-1.83 3.46 21.14 18.7 21.14 18.7 1 6.8 1.93 8.54-1 25.5-3.05 27.13 13.76 1.47 13.76 1.47.72-15.6 1.33-16.42-.4-17.48-.4-17.48-.1-14.23 1.22-18 1.17-16.26 1.17-16.26 1.17-7.5 2.6-9.25-2.6-9.37-2.6-9.37z" class="B"/><path d="M426.56 456.7s-10.22-2.1-13-.68-8.13 2.54-8.94 3.35-2.85.2-4.67 5-2 9.66-4.37 11.9-3.56 3.76-3.66 5.4.3 2-.6 2.54-2.24 2.64-1.83 3.46 21.14 18.7 21.14 18.7 1 6.8 1.93 8.53-1 25.5-3.05 27.14 13.72 1.47 13.72 1.47.7-15.6 1.32-16.4-.4-17.48-.4-17.48-.1-14.23 1.22-18 1.18-16.26 1.18-16.26 1.16-7.5 2.58-9.25-2.55-9.4-2.55-9.4z" class="D"/><path d="M425.48 448.1a20.38 20.38 0 0 1 1.18 6.86 23.28 23.28 0 0 0 26.74-10.56 57.52 57.52 0 0 1-1-7.58c0 0-31.3-1.63-26.92 11.28z" class="B"/><path d="M410.04 432.04c.025 12.35 9.714 22.52 22.05 23.143s23-8.52 24.268-20.804-7.3-23.414-19.503-25.326-23.765 6.062-26.314 18.147a23.27 23.27 0 0 0-.5 4.84z" class="I"/><path d="M395.1 485.9l-5.6 1.73a2.88 2.88 0 0 1-1.12 3 3.39 3.39 0 0 0-1.42 3s-.6 2.24-2 2.75-2.33 3.86-2.33 3.86l-4.68 5.4s-1.73 1.42-1.42 2.13-1.83.9-1.83.9l1.12 18.1 9.65 1.82 6-.6 4.88-1.82 4.27-2.55 1.93-5 8.53-13z" class="D"/><path d="M376.1 510.2s-12.4-17.9-21.65-8.23 3.76 25.3 6.8 24.8 17.6-1.32 17.6-1.32z" class="I"/><path d="M410.54 427.2a2.82 2.82 0 0 1 1.71.77c.78.83.82 2.3 1.85 2.82a2.16 2.16 0 0 0 1.21.14c2.7-.4 4.26-3.44 6.86-4.28a7 7 0 0 1 4.55.39 3.46 3.46 0 0 1 1.5 1c.87 1.13.26 2.78.66 4.14.56 1.9 2.8 2.64 4.77 2.88s4.15.4 5.45 1.86a5 5 0 0 1 1 3.93 3.14 3.14 0 0 0 0 1.46c.54 1.52 3.18 1.3 3.87.1.5-.87.35-1.6 1.53-1.84a5 5 0 0 1 2.49.43 18.11 18.11 0 0 0 6.44 1 23.28 23.28 0 0 0-26.548-32.531 23.28 23.28 0 0 0-17.292 17.791z" class="B"/><path d="M440.05 441.67a3.14 3.14 0 0 1 0-1.46 5 5 0 0 0-1-3.93c-1.3-1.47-3.5-1.6-5.45-1.86s-4.2-1-4.77-2.88c-.4-1.36.2-3-.66-4.14a3.35 3.35 0 0 0-1.5-1 7 7 0 0 0-4.55-.4c-2.6.84-4.16 3.9-6.86 4.28a2.17 2.17 0 0 1-1.21-.14c-1-.52-1.07-2-1.85-2.82-1.24-1.3-3.58-.47-5.1-1.44a4.63 4.63 0 0 1-1.64-3 14.57 14.57 0 0 1-.45-6.74c.88-3.78 4.26-6.37 6.42-9.6 2-3 3.14-6.8 6.16-8.8s6.9-1.54 10.3-.53a28.86 28.86 0 0 0 4.83 1.27c2.74.34 5.5-.4 8.27-.5a17.72 17.72 0 0 1 10.92 3.32 6 6 0 0 1 1.78 1.8 9.08 9.08 0 0 1 .8 3.24 16.44 16.44 0 0 0 2.14 5.94c.86 1.43 1.93 2.73 2.7 4.2a6.43 6.43 0 0 1 .73 4.81c-.26.84-.77 1.6-1 2.45-.45 2 .86 3.88 1.75 5.7a10.78 10.78 0 0 1 1.19 5.42 6.84 6.84 0 0 1-2.44 4.87 8.72 8.72 0 0 1-5.15 1.56 18.33 18.33 0 0 1-6.57-1 5 5 0 0 0-2.48-.43c-1.2.24-1 1-1.54 1.84-.6 1.26-3.25 1.48-3.8-.04z" class="D"/><path d="M427.52 572.9l13.1-10.26 20.63-20.33-6.8-.3a4.44 4.44 0 0 0-1.44 2.77c-.1 2.5-5.57.18-8.42 1.6s-16.77 19.24-19.2 19.12-4.37-1.23-5.38.5l-.08.12a2.89 2.89 0 0 1-1.55.92z" class="B"/><path d="M401.1 572.2l6.6 21 1 3.3 3.14-.86 37.72-10.36a26.72 26.72 0 0 0 11.09-3 33.53 33.53 0 0 1 19.14-4.18c4.07.38 8.6-1.37 12.36-8.32 0 0 8.53-25.2-13-32.4s-22.58 3.83-22.58 3.83l-.3.18c-.84.53-3.18 2.2-3.27 4.25-.1 2.48-5.57.17-8.42 1.6s-16.75 19.32-19.17 19.2-4.37-1.24-5.38.5a1 1 0 0 1-.08.11c-.75 1-3 1.28-4.5 1.32h-1.4l-.2.06-1.56.46z" class="G"/><path d="M402.8 531.34l3.17.5 1.32-13.1-3.27-.64c.48 1.82-.62 8.9-1.22 13.24z" class="B"/><path d="M485.9 470.08s9.45-2.74 7.12 24.1-19.82 43.8-19.82 43.8-20.13 8.84-29.17 7.42-15.63-1.73-15.63-1.73a23.13 23.13 0 0 0-9.15-2.44c-5.08-.2-15.75-3.35-16-4.37s2.65-15.95 1.43-17.07c0 0 14.23.58 15.65 1.6s3.45.3 5 0 6.2-4.35 15.45-.8c0 0 3.15.3 4.37-.5a4.38 4.38 0 0 1 3.18-.2 8.74 8.74 0 0 0 2.2-1.12c.3-.4 2.75 0 2.75 0a1.08 1.08 0 0 0 1.52-.71 6.66 6.66 0 0 1 1.42-2.23s2.75-15.45 7.93-21.24a3.32 3.32 0 0 0 1.12-2.95c-.4-1.63 8.43-24.83 20.63-21.55zm-73.65 98.77l13.42 16.25.1-.1c.1-.3 1.42-3.76 1.1-4s-2.64-5.3-7.32-7.42a13.93 13.93 0 0 1-5.74-5.23z" class="B"/><path d="M412.4 596.96l1.47.84 6.8-5.48 6.73-5.6c.1-.3 1.42-3.76 1.1-4-.16-.1-.85-1.5-2.14-3.14-9.1-2.55-3.3 3.77-2.53 4.06 0 0-11.08-2.54-11.7 9.52a14.4 14.4 0 0 0 .26 3.79z" class="B"/><path d="M423.65 602.07l1.94 1.12 19.6.5a39.61 39.61 0 0 0 6.94 3.34 6.44 6.44 0 0 0 1 .22 45.73 45.73 0 0 0 5.47.1l2.66-.1s-.93-24.74-1.63-27.34c-.33-1.25-2-1-3.6-.35a23.21 23.21 0 0 0-3.51 1.78c0 0-8.33.8-9.66 1.52s-5.08-.4-7.42 0-6.5-2.75-6.5-2.75c-11.38-3.76-5 3.25-4.17 3.56 0 0-11.07-2.54-11.68 9.52s10.55 8.87 10.55 8.87z" class="D"/><use xlink:href="#F" fill="#565387"/><use xlink:href="#F" class="B"/><path d="M448.66 593.2c1.35 4.94 1.33 10.5 3.48 13.84a6.44 6.44 0 0 0 1 .22 45.73 45.73 0 0 0 5.47.1c1.5 0 2.66-.1 2.66-.1s-.93-24.74-1.63-27.34c-.33-1.25-2-1-3.6-.35a23.21 23.21 0 0 0-3.51 1.78c0 0-5.6 5.52-3.87 11.85z" class="F"/><path d="M381 543.06s9.74 3.16 18 14.4z" class="B"/><g class="B"><path d="M460.16 421.1l-.06.22a6.85 6.85 0 0 1-.34.85 6 6 0 0 1 .4-1.07zm-55.12-4.93a9.14 9.14 0 0 1 .75-2l-.14.53a14.58 14.58 0 0 0 .45 6.74 4.63 4.63 0 0 0 1.64 3c1.5 1 3.85.13 5.08 1.43.8.83.83 2.3 1.85 2.82a2 2 0 0 0 1.22.14c2.7-.38 4.26-3.43 6.86-4.27a6.86 6.86 0 0 1 4.54.39 3.35 3.35 0 0 1 1.51 1c.87 1.12.26 2.78.66 4.14.56 1.88 2.8 2.63 4.76 2.88s4.15.38 5.46 1.86a4.92 4.92 0 0 1 1 3.93 3.23 3.23 0 0 0 0 1.45c.54 1.53 3.18 1.3 3.87.1.5-.88.35-1.6 1.53-1.85a5.1 5.1 0 0 1 2.49.43 18.31 18.31 0 0 0 6.57 1 8.86 8.86 0 0 0 5.15-1.56 6.15 6.15 0 0 0 1.58-1.93 6.5 6.5 0 0 1-2.19 3.45 8.72 8.72 0 0 1-5.15 1.56 18.3 18.3 0 0 1-6.57-1 5 5 0 0 0-2.49-.43c-1.18.24-1 1-1.53 1.84-.7 1.2-3.33 1.43-3.87-.1a3.27 3.27 0 0 1 0-1.46 4.92 4.92 0 0 0-1-3.93c-1.3-1.47-3.5-1.6-5.46-1.86s-4.2-1-4.76-2.88c-.4-1.36.2-3-.66-4.14a3.35 3.35 0 0 0-1.5-1 7 7 0 0 0-4.55-.4c-2.6.84-4.16 3.9-6.86 4.28a2.2 2.2 0 0 1-1.22-.14c-1-.52-1.06-2-1.85-2.82-1.23-1.3-3.57-.47-5.08-1.44a4.63 4.63 0 0 1-1.64-3 14.57 14.57 0 0 1-.45-6.77z"/><path d="M461.73 497.52l-5.63 7.5a14.23 14.23 0 0 0-2.47 8.87c1.7-1.75 2.48-4.17 3.56-6.36 1.82-3.72 4.54-6.87 6.83-10.28.44-.65 3.25-4.42 1.83-4.6-1.17-.15-3.45 4-4.12 4.87z"/></g><use xlink:href="#G" fill="#fff"/><g class="E"><use xlink:href="#G" class="C"/><path d="M353.867 501.005L406.828 473l.986 1.865-52.96 28.006z"/><use xlink:href="#H" class="C"/><use xlink:href="#H" x="2.406" y="4.545" class="C"/><use xlink:href="#H" x="4.818" y="9.11" class="C"/><path d="M324.93 511.02a14.2 14.2 0 0 0 5.26 26.69l-1.12-2.12a3.23 3.23 0 0 1 1-4.16 5.63 5.63 0 0 0 8.74-4.62 3.24 3.24 0 0 1 4 1.5l1.15 2.18a14.2 14.2 0 0 0-19.05-19.47zm13.63 12.4a.76.76 0 0 1-.05.3.84.84 0 0 1-.3.32l-.25.14a5.64 5.64 0 0 1-8.09 6.169 5.64 5.64 0 0 1-3.07-5.169h-.07a1.89 1.89 0 0 1-1.05-2.4 3.61 3.61 0 0 1 .83-.92 5.21 5.21 0 0 0 1.56-3.38 6 6 0 0 1 .37.77 1.26 1.26 0 0 1 1.54-.89 4.22 4.22 0 0 0 .72.27 1.64 1.64 0 0 0 .65-.13l1.33-.5a2 2 0 0 1 2.62.36 14.5 14.5 0 0 1 2.22 2.21 4.79 4.79 0 0 1 1.04 2.86z" class="C"/></g><path d="M368.06 513.96c-.1 13.4 27.65 16.26 27.65 16.26l7.1 1.12 3.17.5 1.32-13.1s-1.45-.22-3.27-.64c-2.68-.63-6.16-1.7-6.9-3.23-1.22-2.54-28.97-14.33-29.07-.9z" class="I"/><path d="M485.65 468.02s9.45-2.74 7.12 24.1-19.82 43.8-19.82 43.8-20.13 8.84-29.17 7.42-15.65-1.73-15.65-1.73a23.13 23.13 0 0 0-9.15-2.44c-5.08-.2-15.75-3.35-16-4.37s2.65-16 1.43-17.07c0 0 14.23.58 15.65 1.6s3.45.3 5 0 6.2-4.36 15.45-.8c0 0 3.15.3 4.37-.5a4.38 4.38 0 0 1 3.18-.2 8.74 8.74 0 0 0 2.2-1.12c.3-.4 2.75 0 2.75 0a1.07 1.07 0 0 0 1.52-.71 6.76 6.76 0 0 1 1.42-2.24s2.75-15.44 7.93-21.24a3.29 3.29 0 0 0 1.12-2.94c-.4-1.63 8.46-24.77 20.65-21.55z" class="D"/><path d="M860.85 146.33v56c0 1.66-3.13 3-7 3H706.12c-3.86 0-7-1.36-7-3v-56c0-1.67 3.12-3.37 7-3.37h147.75c3.85 0 6.98 1.7 6.98 3.37z" class="B E"/><use xlink:href="#I" fill="#fff"/><g class="E"><use xlink:href="#I" class="C"/><path d="M787.42 152.77h76.96v2.72h-76.96z"/><path d="M787.42 159.4h76.96v2.72h-76.96zm0 6.6h76.96v2.72h-76.96zm0 6.63h76.96v2.72h-76.96zM748.5 146.8a18.25 18.25 0 0 0-10.09 33.48v-3.1a4.16 4.16 0 0 1 3.65-4.11 7.24 7.24 0 0 0 12.7 0 4.16 4.16 0 0 1 3.65 4.11v3.17a18.25 18.25 0 0 0-9.91-33.56zm8 22.27a.79.79 0 0 1-.77.49 2.3 2.3 0 0 1-.37 0 7.24 7.24 0 0 1-14.18-2.06 7.16 7.16 0 0 1 .94-3.56l-.08-.05a2.42 2.42 0 0 1 .24-3.35 4.91 4.91 0 0 1 1.5-.55 6.65 6.65 0 0 0 3.8-2.9 6.79 6.79 0 0 1 0 1.1 1.61 1.61 0 0 1 2.29-.08c.23.23.38.55.66.73a1.73 1.73 0 0 0 .81.23l1.8.24a2.56 2.56 0 0 1 2.76 2 17.51 17.51 0 0 1 1.19 3.85 6.08 6.08 0 0 1-.58 3.92z" class="C"/></g><path d="M961.57 727.42l-2.28-9.38s.06-5.5-2.56-9.5l-.05-1.37-.4-10.16a34.22 34.22 0 0 1 2.36-5.4c1.7-3.25-.57-14.85-.57-14.85s-7.4-16.2-6.15-26.68-15.67-45.8-15.67-45.8a46 46 0 0 1 1.07-10.28 8.18 8.18 0 0 0 .11-2.16 2.26 2.26 0 0 0 0-.26v.08c-.5-6.87-6.43-19.55-6.43-19.55l-.22-24.6s2.92-14.63-3.5-33.86c-2.24-6.7-3.7-12.1-4.67-16.26l-.3-1.36 20.43-4s-7.84-28-12.6-32.8-9-20.2-9-20.2-3.14-19.9.47-25.87 3.75-16.16 3.75-16.16 8.52-6.7 9.5-9.58 2.57-9.3 2.44-12.66-1.34-6.33-1-8.1-2.9-8.4-1.55-11.63a8.62 8.62 0 0 0 .47-3.09v-.13a43.13 43.13 0 0 0-1.09-8.26 23.54 23.54 0 0 0-8.86-4.31l-.22-.75-.57-2c-.3-.18-.6-.34-.88-.48v-.72l-.2-2.87 1.12-6.5c2.27-11.33-12.78-12.43-12.78-12.43a7.82 7.82 0 0 0-4.38-3.55c-3.06-1 .14 16.9 1.6 18 1.1.82 4.58 6.32 6.26 9l.28.44a6.82 6.82 0 0 0-.66.75l.83 4.47a15.68 15.68 0 0 0-2.23 4.16s2.85 2.9 2.43 6.28 1.13 7.52 1.2 7.74c-.17-.18-2.18-2.2-4.08-1.6s-7.23 2.4-7.23 2.4-4 .86-3.6 1.73-2.55 4.88-2.55 4.88l-11.2-9.82-.35-.9a25.63 25.63 0 0 1-1.11-4.45 24.33 24.33 0 0 0 3.41-1.23 7.47 7.47 0 0 0 2.92-2c1-1.33 1.18-3.1 1.56-4.72.73-3.18 2.46-6.05 3.66-9.1a29.07 29.07 0 0 0 1.47-16.06 10.66 10.66 0 0 0-1.84-4.63c-1.86-2.36-5.1-3.23-7.5-5.07s-4-4.74-6.78-6.1c-2.5-1.22-5.48-1-8.22-.4a43.87 43.87 0 0 0-15.1 6.15c-1.53 1-3.22 2.14-5 1.88-1.56-.22-2.74-1.42-3.8-2.57a.83.83 0 0 1 0-.15l-.13-.13a19.09 19.09 0 0 0-1.36 8.14c0 .43 0 .86.1 1.3v.45a2.41 2.41 0 0 1 0 .38 2.29 2.29 0 0 1-.06.58 4.16 4.16 0 0 1-1 1.49 9 9 0 0 0-.84 1.24c0-.15.08-.3.13-.45a6.32 6.32 0 0 0-1 3.45 3.4 3.4 0 0 0 .9 2.41 11.76 11.76 0 0 0 1.82 1.35 19.53 19.53 0 0 0-.19 3.6 20.91 20.91 0 0 0 10.86 17.43l.4.9c1.52 3.58 2.72 7.77 2.4 11.7 0 .3-.06.58-.1.86s-.26.3-.37.47c0 0-17.83.86-22.17-2.78s-10.24 9.7-10.24 9.7-6.34 1.5-7.67.3-8.78.16-8.78.16a16.08 16.08 0 0 0-11.29-3.64 33.09 33.09 0 0 0-8.36-4.23l-.2-.06a9.18 9.18 0 0 0-4-.36s-9.05-6.9-11.76-10.7-15.44-17.75-15.5-17.82l-.07-.7-.22-2.1a7.55 7.55 0 0 1-1.09.14l-.27-.72a38.49 38.49 0 0 0-2.82-5.84c0 0-.1-2.66.65-3.35s-.72-10.38-.72-10.38-8.6-18.17-15.16-4.1c0 0-13 9.44-1.4 19.4 0 0 4.57 2 5.27 3.7.46 1.1 2.1 4.16 3.2 6.2l.5.9-.12.1.23 1.73.1.67c-2.06 1.28-3.45 2.53-3.07 3.42a19.33 19.33 0 0 1 1.46 4.72c0 0 16.28 18.85 18.6 27.1 0 0 42.6 23.15 56.37 24.4l-1.8 12.44a98.66 98.66 0 0 0-.16 10.1c.28 2.65-1.08 14.74-1.08 14.74s-1.7 17.77-3.6 20.33-1.15 13.14-1.15 13.14a89.34 89.34 0 0 1-2.16 15.14c-1.75 6.8 0 15.05 0 15.05s-6.33 16.18 9.88 4.75c0 0 8.14-.82 17.52-1.5v.94c0 1.2.06 2.52.1 3.9.22 9.12.65 21.68 1.43 31.17 1.4 16.77 7.78 49.77 7.78 49.77l.64 16.7a22.94 22.94 0 0 0-.29 4.79 31 31 0 0 0 5.1 16.59l1.7 11.08s3.28 7.23 3.5 11.6a6 6 0 0 1-.09 1.07 7.4 7.4 0 0 0-.08 1.71c0 5.06 3.54 17.05 3.54 17.05s.65 12.2 2.5 12.83c1.6.54-1.8 7.1-2.83 9a3.59 3.59 0 0 1-.08-.35c-.13.25-.2.38-.2.38a8.69 8.69 0 0 0-.45 3.11 4.42 4.42 0 0 0 2.19 4.21c3.55 2 5.48 3.68 2.57 4.5a31 31 0 0 0-3.2.81c0-.14-.12-.28-.17-.4a2 2 0 0 0-1.12 2.18 9.2 9.2 0 0 0 1.25 4.1c3.18 6.43 5.3 8.83 5.3 8.83l1.4-.2a7.27 7.27 0 0 1-.75 1.54 5.93 5.93 0 0 1-2 1.91 6.31 6.31 0 0 1-2.46 1 7 7 0 0 0-5.08 2.72c-1.73 2.42-2.75 5.68 1 8.36l13.24 4s22.58 2.06 21.2-2.94-2.28-9.38-2.28-9.38a20 20 0 0 0-2.17-8.87 11 11 0 0 0-.84-1.29l.8-.12s1.2-11.2 3.32-13.4c.5-.5.6-.88.46-1.17.2-.62-.38-1-1.13-1.12 0 .14-.1.3-.14.44a11.21 11.21 0 0 0-2.19-.16c0 0-1-5.8 1.34-8a2.24 2.24 0 0 0 .39-1.75 9.47 9.47 0 0 0-.34-2.36.61.61 0 0 0-.07.14c-1.4-5.25-5.78-13.5-5.78-13.5s-.38-5.3 1-7.47-1.3-28.82-1.3-28.82.06-12.93-1.82-18.87 1.5-13.16 1.5-13.16 0-.14-.06-.4v-.1l-.3-2a.65.65 0 0 1 0 .13c-.5-3.4-1.43-9.56-2-12.4-.9-4-.72-23.52-.72-23.52l3-8.44 6.4 14.1 6.95 18.86s3.23 3.9 3.46 8v.6a11 11 0 0 0 0 1.28 11.38 11.38 0 0 0 2.15 6.72c0 0 2 9 4.64 11.16s2.82 6.62 2.82 6.62 3.6 13 5.16 15.2c1.3 1.9 1.57 7.2 1.62 8.84v.48s.62 4.66.75 8.6v1.3a14.23 14.23 0 0 1-.26 3.19v.2q0-.35 0-.66a33.61 33.61 0 0 0-.62 8.18c.1 4.7 1 10.25 4 13.4 5.15 5.47 8.23 4.64 8.23 4.64s-2.1 7.16-5 8.7a2.11 2.11 0 0 0-.31.21c0-.13-.06-.27-.08-.4a3.42 3.42 0 0 0-.76 2.66c-.1 3.12 2.07 8.1 4 10.35a5.82 5.82 0 0 0 2.52 1.34 4.91 4.91 0 0 1-.44.31 9.45 9.45 0 0 1-1 .51 4.9 4.9 0 0 1-1.48.44 7.05 7.05 0 0 0-5.08 2.72c-1.72 2.42-2.75 5.67 1 8.36l13.24 4s22.54 1.95 21.1-3.05z" transform="translate(-36.6 -133.2)" fill="url(#B)"/><path d="M839.47 605.87l-12.82-4c-3.6-2.7-2.6-5.95-.93-8.37a6.75 6.75 0 0 1 4.91-2.71 6 6 0 0 0 2.38-1 5.6 5.6 0 0 0 1.93-1.91 9.36 9.36 0 0 0 1.26-4.94s13.72-4.6 17.68-.68a10.68 10.68 0 0 1 1.78 2.4 20.65 20.65 0 0 1 2.11 8.88 170.3 170.3 0 0 0 2.22 9.38c1.34 5-20.52 2.95-20.52 2.95zm61.63-8.6l-12.8-4c-3.6-2.68-2.6-5.94-.94-8.35a6.68 6.68 0 0 1 4.91-2.71 5 5 0 0 0 1.43-.45 8.26 8.26 0 0 0 1-.51c3.47-2.08 3.2-6.85 3.2-6.85s13.73-4.6 17.68-.68a9.78 9.78 0 0 1 1.4 1.75c2.54 4 2.5 9.52 2.5 9.52s.88 4.4 2.22 9.4-20.57 2.9-20.57 2.9z" fill="#2d293d"/><path d="M853.88 582.3a10.68 10.68 0 0 1 1.78 2.4l-20.72 3.2a9.36 9.36 0 0 0 1.26-4.94s13.72-4.6 17.68-.67zm63.04-6.86l.15 3.9c-3 5.46-18.72 4.9-23.37 2.4a8.26 8.26 0 0 0 1-.51c3.47-2.08 3.2-6.85 3.2-6.85s13.73-4.6 17.68-.68a9.78 9.78 0 0 1 1.35 1.75z" class="B"/><path d="M918.75 558.56a34.32 34.32 0 0 0-2.27 5.4l.53 14c-3.3 6-21.77 4.74-24.37 1.65s-5.57-11.3-2.8-12.82 4.8-8.68 4.8-8.68-3 .82-8-4.65-4.06-18.08-3.3-21.12-.5-13.1-.5-13.1-.1-7.08-1.6-9.32-5-15.2-5-15.2-.17-4.42-2.73-6.63-4.5-11.16-4.5-11.16a11.6 11.6 0 0 1-2.06-7.53c.36-4.44-3.36-9.08-3.36-9.08l-6.75-18.86-6.2-14.1-2.85 8.45s-.14 19.48.73 23.52 2.34 14.78 2.34 14.78-3.27 7.2-1.44 13.16 1.8 18.88 1.8 18.88 2.6 26.63 1.28 28.8-1 7.47-1 7.47 7.85 15.28 5.63 17.5-1.3 8-1.3 8 5-.2 2.92 2-3.2 13.4-3.2 13.4l-21.28 3.3s-2.06-2.4-5.14-8.84.3-5.85 3.13-6.67 1-2.5-2.5-4.5-1.68-6.84-1.68-6.84 4.8-8.86 3-9.5-2.44-12.83-2.44-12.83-4.1-14.36-3.36-18.3-3.34-13.15-3.34-13.15l-1.66-11.1a30.64 30.64 0 0 1-4.7-20.89l-.62-17.2s-6.23-33-7.58-49.82c-.87-10.74-1.3-25.42-1.5-34.6l-.15-8.55 76.07-10.9a63.52 63.52 0 0 0 1.82 11.29c.94 4.16 2.37 9.55 4.55 16.26 6.23 19.24 3.43 33.87 3.43 33.87l.24 24.6s7.35 16.18 6.15 21.9a47.55 47.55 0 0 0-1 10.31s16.4 35.3 15.22 45.8 6 26.7 6 26.7 2.2 11.64.54 14.9z" class="G"/><path d="M871.53 468.12l23.13-4s-12.65 13.96-23.13 4z" class="F"/><path d="M890.4 441.54s1.1 8.2-3.8 11.48c.03 0 9-1.76 3.8-11.48zm-2.4-26.1s-18.82 16.75-26 15.7 26-15.7 26-15.7zm-45 61.37s-14.63 3.92-14.84 9.86S843 476.8 843 476.8z" class="B"/><path d="M849.1 550.35s-20.7 4.7-14.7 7.1 15.83 4.18 15.83 4.18 6.73.1-1.14-11.3z" class="F"/><path d="M830.4 561.8a4.15 4.15 0 0 1-2-2.95l-.2.38s-1.76 4.84 1.68 6.84l1.12.67 1.92-.44c2.74-.77.87-2.5-2.52-4.5zm26.77-2.4c.55-.55.48-1.9.06-3.64a9.82 9.82 0 0 0-1 5.16 4.1 4.1 0 0 1 .94-1.52zm-6.6-87.85a24 24 0 0 0-1.16 6.56 25.51 25.51 0 0 1 1.45-4.53l-.3-2.03zm47.4-11.12a7.86 7.86 0 0 0 .12-1.94l-.44 3.64.32-1.7zm-45.48 74a11.24 11.24 0 0 0 .37-3.94 13.31 13.31 0 0 0-.82 5 4.81 4.81 0 0 1 .45-1.06zm5.65 33.18a69.59 69.59 0 0 0-2 11l-21.28 3.3s-2.05-2.4-5.13-8.83l-.67-1.54c-1.26.64-1.7 2 .12 5.8 3.08 6.43 5.14 8.83 5.14 8.83l21.28-3.3s1.16-11.2 3.2-13.4c1-1.13.3-1.67-.66-1.87zm-29.47-30.67s.65 12.2 2.44 12.84c.82-2.05 1.34-4 .54-4.27-1.8-.64-2.44-12.84-2.44-12.84s-4.1-14.36-3.36-18.28-3.34-13.15-3.34-13.15l-1.67-11.1a30.64 30.64 0 0 1-4.7-20.89l-.66-17.15s-6.23-33-7.58-49.82c-.87-10.74-1.3-25.43-1.5-34.6 0-1.66-.06-3.13-.1-4.37l-.6.1s0 3.4.16 8.55c.2 9.16.64 23.85 1.5 34.6 1.36 16.77 7.6 49.82 7.6 49.82l.66 17.15a30.64 30.64 0 0 0 4.7 20.89l1.66 11.1s4.08 9.22 3.34 13.15 3.37 18.28 3.37 18.28zm64.5 37.87a20.68 20.68 0 0 1-3.7-8.26c-2.1 2 .7 9.6 3.16 12.53 2.6 3.1 21.06 4.33 24.37-1.64l-.13-3.37c-4.6 4.94-21.24 3.68-23.7.74zm26.1-21a34.32 34.32 0 0 0-2.27 5.4l.1 2.48 1.64-3.6a10.73 10.73 0 0 0 .6-4.41zm-25.68 3.8a33.39 33.39 0 0 0 1.58-4.27s-3 .82-8-4.65c-3.63-4-4.13-11.75-3.83-16.85-.77 3-1.7 15.65 3.3 21.12 3.3 3.58 5.7 4.46 6.96 4.65zm-10.73-38.86a96 96 0 0 1 .76 10.46 12.91 12.91 0 0 1 .3-1.65c.77-3-.5-13.08-.5-13.08s-.1-7.08-1.6-9.33-5-15.2-5-15.2-.17-4.42-2.74-6.62-4.5-11.16-4.5-11.16a11.64 11.64 0 0 1-2.06-7.54c.36-4.44-3.36-9.07-3.36-9.07l-6.76-18.87-6.2-14.1-2.86 8.43v2.7l2.33-6.85 6.2 14.1 6.74 18.86s3.72 4.63 3.36 9.07a11.58 11.58 0 0 0 2.06 7.54s1.93 9 4.5 11.16 2.73 6.62 2.73 6.62 3.5 13 5 15.2 1.6 9.34 1.6 9.34z" class="F"/><path d="M885.2 192.87l-1.08 6.5.33 5-7.35 1-.9-1.5c-1.63-2.7-5-8.22-6.08-9-1.4-1.1-4.53-18.95-1.57-18a7.75 7.75 0 0 1 4.26 3.56c0 0 14.58 1.12 12.38 12.44z" class="J"/><path d="M884.45 204.37l-7.35 1-.9-1.5a6.52 6.52 0 0 1 8.1-1.66z" class="B"/><path d="M886.4 207.8l-9.64 2.63-.96-5.32s3.65-5.28 9.37-1.64l.56 2z" fill="#dce6f2"/><path d="M728.3 199.62l-10.17 6-1-1.92-3.1-6.2c-.68-1.7-5.1-3.7-5.1-3.7-11.27-10 1.34-19.4 1.34-19.4 6.32-14.06 14.67 4.12 14.67 4.12s1.44 9.7.7 10.38-.62 3.34-.62 3.34a39.3 39.3 0 0 1 2.73 5.85c.36.92.55 1.52.55 1.52z" class="J"/><path d="M728.3 199.62l-10.17 6-1-1.92c1.4-1.28 6.45-5.7 8.16-5.57a13.19 13.19 0 0 0 2.46 0l.55 1.5z" class="B"/><path d="M729.5 202.72l-11.45 6.2-.56-4.23s6.54-6.05 8.55-5.9a10.82 10.82 0 0 0 3-.12l.22 2.1z" fill="#dce6f2"/><path d="M858.56 236.8s-50.66 7.7-41.27 4.25c6.54-2.42 9-6.73 9.38-11.4.3-3.93-.87-8.12-2.35-11.7a51.09 51.09 0 0 0-4.9-9s38.07-22.9 31-3.14a30.94 30.94 0 0 0-1.85 9.3 26 26 0 0 0 1.36 9.29 27.8 27.8 0 0 0 8.63 12.42z" class="J"/><path d="M850.46 205.8a30.94 30.94 0 0 0-1.85 9.3c-3.54 3.22-7.57 3.17-12.73 3.37-4 .15-8.32 1.28-11.56-.5a51.09 51.09 0 0 0-4.9-9c0 0 38.07-22.9 31.04-3.16z" class="B"/><circle cx="834.44" cy="198.81" r="21.06" class="J"/><path d="M858.56 236.8s-50.66 7.7-41.27 4.25c6.54-2.42 9-6.73 9.38-11.4 2.43-2.85 7.44-5 10.67-6.2a15.19 15.19 0 0 1 9.21-.5 12.83 12.83 0 0 1 3.42 1.42 27.8 27.8 0 0 0 8.59 12.44zm27.84-29l-9.64 2.63-.26-1.44a8.62 8.62 0 0 1 9.23-3.56zm-156.9-5.08l-11.45 6.2-.33-2.5a84.76 84.76 0 0 1 11.58-5.62zm154.12 161.56c-19.58 3.87-47.47 9-52 7.8-3.74-1-15.52-.4-25.77.34l-.15-8.55 76.07-10.9a63.52 63.52 0 0 0 1.85 11.29z" class="B"/><path d="M903.1 358.9s-64.46 13.63-71.5 11.78-42.7 1.82-42.7 1.82c-15.67 11.4-9.57-4.77-9.57-4.77s-1.73-8.25 0-15.05a92.45 92.45 0 0 0 2.07-15.13c0 0-.76-10.6 1.1-13.14s3.47-20.32 3.47-20.32 1.3-12.1 1-14.74.15-10.1.15-10.1l1.8-12.46c-13.33-1.26-54.6-24.46-54.6-24.46-2.27-8.23-18-27.1-18-27.1a20.3 20.3 0 0 0-1.42-4.73c-1.17-2.8 14.53-9.06 14.53-9.06s12.4 14 15 17.84S755.8 230 755.8 230a8.5 8.5 0 0 1 3.91.35l.2.06a31.66 31.66 0 0 1 8.09 4.24 15.36 15.36 0 0 1 10.94 3.65s7.2-1.34 8.5-.15 7.43-.28 7.43-.28 5.68-13.33 9.9-9.68 21.47 2.8 21.47 2.8c2.18-3.14 7.7-5.55 11.15-6.8a15.19 15.19 0 0 1 9.21-.51 11.82 11.82 0 0 1 3.71 1.62l10.86 9.85s2.86-4 2.47-4.88 3.48-1.72 3.48-1.72l7-2.4c1.94-.6 3.78 1.44 3.95 1.6-.08-.22-1.57-4.45-1.18-7.74s-2.37-6.28-2.37-6.28c5.6-15.44 20.06-3.25 20.06-3.25s1.92 8.25.62 11.5 1.8 9.84 1.5 11.62.9 4.75 1 8.1-1.4 9.8-2.34 12.66-9.2 9.56-9.2 9.56-.14 10.1-3.63 16.08-.42 25.87-.42 25.87 4.14 15.42 8.75 20.2 12.25 32.82 12.25 32.82z" class="D"/><path d="M804.03 246.2s-2.17-5.76-4-6.22a42.43 42.43 0 0 1-5.21-2.1l1-2.22s6.7 1.56 7.85 3.47.36 7.07.36 7.07zM768 234.66c-.3 1.78-16 4-16 4l7.65-8.3.2.06a31.66 31.66 0 0 1 8.15 4.23z" class="B"/><g fill="#575988"><circle cx="721.54" cy="212.14" r="1.42"/><circle cx="723.46" cy="214.9" r="1.42"/><circle cx="725.33" cy="217.44" r="1.42"/><circle cx="727.29" cy="220.2" r="1.42"/><circle cx="893.95" cy="213.63" r="1.15"/><circle cx="894.23" cy="216.23" r="1.15"/><circle cx="894.48" cy="218.83" r="1.15"/></g><path d="M805.96 294.1c-.17-.2 41.62 48.6 71.45 18.32-.01 0-48.64 8.5-71.45-18.32zm-21.9 27.06s23.88-.27 26.64 6.5l.27 7.14a4.55 4.55 0 0 1-4.44.17c-2.45-1.2-17.15-8-22.1-4.25z" class="B"/><path d="M784.52 321.14s22.83-.26 25.47 6.2l.26 6.8a4.38 4.38 0 0 1-4.25.16c-2.34-1.15-16.4-7.6-21.13-4.05z" fill="#656691"/><path d="M795.1 268.87a76.72 76.72 0 0 0 9.86 15.51 62.23 62.23 0 0 0 15 13.42s-24.34-25.67-24.86-28.93zm-8.87-27.4s4.64 17 15.12 22.46zm-6.03 1.97c-.12-.32-3 13.72 14 20.76.03 0-7.18-2.14-14-20.76zm103.7-15.53c-.26 0 8.48 5.1 10.9 7.55 0 0-5.86-8.1-10.9-7.55z" class="B"/><path d="M829.48 218.1a3.31 3.31 0 0 0 3.75 3.15c6.43.15 13.12.18 19-2.52a7.16 7.16 0 0 0 2.81-2c1-1.33 1.14-3.1 1.5-4.72.7-3.17 2.37-6 3.54-9.08a30.07 30.07 0 0 0 1.42-16.13 10.74 10.74 0 0 0-1.78-4.63c-1.8-2.37-4.94-3.23-7.26-5.08s-3.9-4.75-6.57-6.1c-2.42-1.22-5.3-1-8-.4a41.76 41.76 0 0 0-14.6 6.14c-1.5 1-3.12 2.13-4.9 1.87-1.55-.23-2.7-1.48-3.75-2.65a19.61 19.61 0 0 0-1.22 9.23 4 4 0 0 1 0 1.38 4.24 4.24 0 0 1-.93 1.49c-1.5 1.9-2.4 4.85-.75 6.64.7.8 1.77 1.2 2.47 2 1.24 1.43.92 3.57 1 5.46a2.77 2.77 0 0 0 .54 1.85 2.73 2.73 0 0 0 2.62.52 7.07 7.07 0 0 1 2.75-.37 4.58 4.58 0 0 1 2.48 1.76c3.13 3.6 4.44 7.7 5.86 12.2z" fill="#2d293d"/><g class="B"><path d="M855.65 215.05a7.17 7.17 0 0 1-2.82 2c-5.84 2.7-12.52 2.68-18.95 2.52a3.31 3.31 0 0 1-3.76-3.14c-1.4-4.5-2.73-8.6-5.84-12.24a4.6 4.6 0 0 0-2.47-1.76 7.31 7.31 0 0 0-2.76.37 2.73 2.73 0 0 1-2.62-.52 2.83 2.83 0 0 1-.54-1.85c0-1.9.28-4-1-5.46-.7-.8-1.76-1.2-2.47-2a4.16 4.16 0 0 1-.57-4.21c-1.05 1.83-1.45 4.14-.08 5.65.7.78 1.78 1.18 2.47 2 1.24 1.43.93 3.57 1 5.47a2.76 2.76 0 0 0 .54 1.84 2.7 2.7 0 0 0 2.62.52 7.28 7.28 0 0 1 2.76-.37 4.65 4.65 0 0 1 2.47 1.76c3.1 3.66 4.42 7.75 5.84 12.24a4.45 4.45 0 0 0 1.75 2.78 4.51 4.51 0 0 0 2 .37c6.43.15 13.12.17 19-2.53a7.25 7.25 0 0 0 2.82-2 5.72 5.72 0 0 0 .84-1.74 2.9 2.9 0 0 1-.23.3zm-42.12-29.08a3 3 0 0 0 .6-1.09 3.77 3.77 0 0 0 0-1.38 19.59 19.59 0 0 1 .7-7.65l-.13-.14a19.64 19.64 0 0 0-1.22 9.23 5.94 5.94 0 0 1 .05 1.03z"/><path d="M826.22 231s26.42 2.48 28.63-1.57m22.05-11.27s14.6-.54 18 4.8"/></g><use xlink:href="#J" fill="#fff"/><g class="E"><use xlink:href="#J" class="C"/><use xlink:href="#K"/><path d="M32.03 182.72a18.25 18.25 0 0 0-10.06 33.47v-1.22a4.14 4.14 0 0 1 3.65-4.1 7.24 7.24 0 0 0 12.7 0 4.14 4.14 0 0 1 3.65 4.1v1.3a18.25 18.25 0 0 0-9.94-33.55zm7.15 23.13a7.23 7.23 0 0 1-14.42 0 7.92 7.92 0 0 1 4.15-10.61 2.32 2.32 0 0 1-.39-1.3 2.41 2.41 0 0 1 2.42-2.41h.17a2.41 2.41 0 0 0-2.24 2.41 2.31 2.31 0 0 0 .32 1.19h.07a2.42 2.42 0 0 1 0-.47 2.39 2.39 0 0 1 .45-1.4 2.41 2.41 0 0 1 2.31-1.7h.17a2.42 2.42 0 0 0-1.84 1.08 2.41 2.41 0 0 1 3.74 2 2.45 2.45 0 0 1 0 .27 7.92 7.92 0 0 1 5.16 10.95z" class="C"/><use xlink:href="#K" y="6.62" class="C"/><use xlink:href="#K" y="13.24" class="C"/><use xlink:href="#K" y="19.86" class="C"/></g><path d="M300 476.46a60.5 60.5 0 0 1-1-9.21c0-3.7-5-7-5-7s-3.1-7.2-5.15-8.25-8.47-10.48-8.47-10.48a8.54 8.54 0 0 0-1.93-5.08 72.79 72.79 0 0 1-5.24-7.91c-.86-1.06-.43-1.8-1.72-7.94q-.1-.48-.24-.93c0-.14-.1-.26-.13-.4a10.38 10.38 0 0 0 2.44-10.74 4.41 4.41 0 0 0-1.23-1.9c-1.46-1.2-3.8-.7-5.3-1.83l1.6-7.06c.4-1.72.6-3.92-.93-4.85a7.62 7.62 0 0 0-1.78-.6c-2.62-.83-4.1-3.6-4.76-6.23a21.36 21.36 0 0 1-.52-7.8c.3-2.5 1-4.94 1.3-7.45a20.57 20.57 0 0 0-3.17-13.26 10.34 10.34 0 0 0-4.19-3.95c-1.6-.72-3.48-.8-5-1.76-3.22-2-3.06-6.9-5.62-9.7s-7.1-2.78-10.85-1.82-7.45 2.6-11.3 2.18c-2.47-.27-4.8-1.4-7.26-1.65a7.26 7.26 0 0 0-2.13.1l.05-.1c-1.84.33-3.52 1.35-3.95 3.1a4.77 4.77 0 0 0-.12 1.26c0 1 .24 2.06.26 3a2.92 2.92 0 0 1-.7 2.13c-.5.53-1.22.8-1.7 1.35a2.2 2.2 0 0 0-.63 1.59c0 1.54 1.92 2.9 3.2 3.5-.35.35-.7.7-1 1.08a22.72 22.72 0 0 0-5.63 15.13 23.05 23.05 0 0 0 14 21.11c-.06.2-.1.37-.18.56a29.72 29.72 0 0 1-1.26 3.27 6.48 6.48 0 0 0-5.43.6c-2.47 1.7-7.3 1.6-8.58 1.27s-14.7-2-15.76-1.6-3.22-1.48-4.6 1.06-2 3.92-3.43 4.55-3.86 2.65-3.54 3.07-3.54 3-3.54 3-3.32 3.5-5.25 3.92-6 3.07-6 3.07l-4.72 3.7s-3.54.53-2.47-1.9-1.93-5.5-1.93-5.5-6-12.17-6-14.7-4.93-13.23-4.93-13.23l-.6-.06-.28-.8c-.9-2.55-2.07-5.67-3-7.5-1.7-3.5-2.8-3.9-2.8-3.9s-20.8-15.62-34.3-10.86 24.66 18.94 28.1 20.43c1.2.5 2.06 2.2 2.67 4.14a17.77 17.77 0 0 0-7.35 6.69c0 0 8.25 18.3 8.46 22.85s5.7 17.25 5.7 17.25 2 9.42 13.08 8.9c0 0 15.22 2.8 18.54 0s6.33-5 7.94-5.3a6.25 6.25 0 0 0 3-2.12s-5 31.74-7.5 34.5-24.34 38.4-16.52 44.75a156.79 156.79 0 0 0 19.62 13c.67.33 2.66-3 5.5-5.35v1.83c.05 12.68 1.7 32 4.05 36.32 3.43 6.35 2 18.63 2 18.63a14.8 14.8 0 0 0 5.8 1.39c.1.4.22.84.34 1.3 1.9 7.14 4.95 18.18 6.5 21.12 2.37 4.45 4.08 18.52 4.08 18.52s1.4 13.86.86 15.77c-.2.73.7 6.48 2.12 13.78l-2.78 36v1.16a7.86 7.86 0 0 0 0 1.3 4.07 4.07 0 0 1-.14 2 32.13 32.13 0 0 1-2.33 5.54c-.05.18-.63 1.38-1 2.7-.85.37-1.9 1.3-2.5 3.55-1.07 4.13-2.68 15.56-2.68 15.56s-.64 7-1.93 8.57-2.57 11.53 6.54 12.8 13.08-4.84 13.08-4.84l-.32-27.7a4 4 0 0 0 .47-.76v-.06c.06-.14.13-.27.2-.43s0-.13.08-.2.1-.22.13-.34a.56.56 0 0 1 0-.12 18.2 18.2 0 0 0 .77-8.25v-.57a1.28 1.28 0 0 0 0-.19 1.93 1.93 0 0 1 0-.24v-.17c0-.18 0-.37.06-.56a.37.37 0 0 1 0-.11v-.33a.77.77 0 0 0 0-.15c0-.1.05-.23.07-.35v-.08c.08-.4.2-.82.3-1.25v-.1l.12-.42c.14-.45.3-.9.44-1.33v-.1l.15-.4v-.05a28.32 28.32 0 0 1 .47-1.22v-.1l.15-.35v-.1l.33-.78 2.53 7.8s1.4 5.82.64 7.2.86 7.1 1.93 7.2l-1 7.2a110.07 110.07 0 0 0-1 12l-.2 1.14c-.7 3.68 1 9.4 1 9.4 8.47 10 18.55.78 18.55.78s1.18-5.3 0-6.35-.64-4.87-.64-4.87.53-9.42.64-16.3-5.63-12.93-5.63-12.93l-.32.3c-1-2.7-2.23-5.84-2-7.25.43-2.43-1.18-28.14-1.18-28.14a153.47 153.47 0 0 0 .37-20.68l.4-3.43 1.38-12.73v-.3c.05-.67.08-1.14.07-1.37 0-.82 0-1.85.08-2.93.2-3 .67-6.28.67-6.28l2.25-13.65s1.7-6.66 4.18-10.37l.3-.47a8.36 8.36 0 0 0 .3-.53v-.08l.3-.57v-.08c.35-.68.72-1.47 1.1-2.33l.1-.2.3-.66.1-.26.3-.66c0-.1.07-.17.1-.26l.34-.8.16-.4c.1-.2.17-.4.25-.6l.22-.52.15-.4.24-.6c0-.1.08-.18.1-.27l1.73-4.42.48-1.24 9.22.65s1.72-12.38 1.18-20.53c-.37-5.56.66-12.56 1.35-16.43l.2-1.15.15.12c2.7 2.1 4.6-4.87 4.6-4.87l-1.7-14.42c0-.26-.07-.53-.1-.8a41.52 41.52 0 0 0 4.69.72s.86-.08 2-.23a56.82 56.82 0 0 0 10.18 4.56l5.68-10.58a43.14 43.14 0 0 1 3.75-6.24c1.72-2.12 7.83-8.9 7.72-10.16s2-8.57 4.18-11.85 3.45-9.94 3.33-10.48zm-23.8 8c-2.25.95-4.4 6.24-4.5 7.83s-2.47 8.57-4.94 9.42c-2.26.78-6.6 4.76-7.3 5.4a35.26 35.26 0 0 0-2.35.3c-.94-6.68-1.87-12.2-2.47-13.32-1.7-3.18 1.9-13.33 1.9-13.33s.36-10.26 2.6-12.7 1.72-8.57 1.72-8.57l.75-3.7c.22-1.16 3.2 0 3.2 0 0 0 5.8 3.17 6.65 7.93s7.18 13 7.18 13-1 2.85 0 4.34-.2 2.5-2.45 3.44z" transform="translate(-36.6 -133.2)" fill="url(#C)"/><use xlink:href="#L" class="L"/><use xlink:href="#L" class="B"/><path d="M102.4 256l-9.2 6.45-.3-3.06c-.46-3.33-1.5-8.33-3.7-9.3-3.38-1.48-41-15.63-27.66-20.38s33.8 10.83 33.8 10.83 1.06.36 2.74 3.85c.9 1.83 2 4.95 2.94 7.5l1.4 4.12z" class="H"/><path d="M175.88 265.94l1.04-.5 2.94 3.35-2.4 5.12-4.1-1.64.95-4.1 1.56-2.24z" class="L"/><path d="M161.96 565.87s-2.64-.3-3.7 3.8-2.64 15.53-2.64 15.53-.63 7-1.9 8.55-2.53 11.5 6.44 12.78 12.9-4.83 12.9-4.83l-.32-27.7zm31.3 1.25s5.65 6 5.55 12.9-.64 16.27-.64 16.27-.52 3.8.64 4.86 0 6.33 0 6.33-9.93 9.22-18.27-.77c0 0-1.63-5.7-1-9.4s2.53-20.25 2.53-20.25z" class="K"/><path d="M207.27 440.8s-5.7 16-8.14 19.64-4.1 10.36-4.1 10.36l-2.22 13.63a74.75 74.75 0 0 0-.74 9.19c.1 3.06-5.5 47.73-5.5 47.73l-8.87 11.3s-3.9 7.92-3.28 11.2-.42 8.55-1.7 10.13c0 0-.2 10.35-.53 12.68s1.17 8.87 0 10-16.68.63-17.1-1.27 1.9-11.1 1.9-11.1l1.37-8.87s2.74-4.86 2.1-6.44 1.16-5.28 1.27-5.6 3-5.5 2.43-7.5 3.27-44.57 3.27-44.57l10.88-76.36z" class="H"/><path d="M207.27 440.8l-2.06 5.56c-1.88 5-4.6 11.82-6.08 14.08-2.43 3.7-4.12 10.35-4.12 10.35l-2.2 13.63a74.73 74.73 0 0 0-.74 9.18c0 1.2-.8 8.93-1.85 17.8l-3.64 29.93-8.88 11.3s-.45.9-1 2.23c-1.1 2.6-2.68 6.8-2.26 9 .63 3.28-.42 8.56-1.7 10.14 0 0-.2 10.36-.53 12.67s1.17 8.88 0 10-16.68.64-17.1-1.27 1.9-11.08 1.9-11.08l1.38-8.88s2.74-4.86 2.1-6.44 1.16-5.28 1.27-5.6 3-5.5 2.43-7.5c-.4-1.53 1.7-26.54 2.72-38.4l.55-6.16L178.34 435z" class="B"/><path d="M197.76 599.67c.1 1.16-14.9 2.85-17 1.58s0-17 0-17l1-7.18c-1.06-.1-2.64-5.8-1.9-7.2s-.64-7.18-.64-7.18l-4-12.56c-2.46-5.45-6-21-8.26-32.6-1.4-7.3-2.3-13-2.1-13.77.53-1.9-.85-15.73-.85-15.73s-1.68-14-4-18.48c-1.54-2.94-4.55-14-6.42-21.1l-1.6-6.27 25.64-1.8c4.46-.2 7.58-.24 7.2.13s-.45 2.3-.43 5.1c0 7.25 1.05 20 2.12 23.42 1.48 4.75 3 19 2.32 20.38s-.42 10.56-.42 10.56a47.43 47.43 0 0 1 1.85 11.47 154.79 154.79 0 0 1-.37 20.64s1.6 25.66 1.16 28.1 3.38 10 3.38 11.5.96 11.5.96 11.5l2.36 16.48zm8.34-308.5l-1.82 2-1.18 1.27-6.92 7.35-17.85 2-9.48-2.54-2.35-.62s0-4.77.43-10.5c.6-7.33 2.05-16.24 5.5-18.66a13.64 13.64 0 0 0 4-5.09 28.49 28.49 0 0 0 1.73-4.27c.07-.2.12-.37.18-.55a46.79 46.79 0 0 0 1.68-7.84s2.28-1.26 5.44-2.73c8.27-3.86 22.55-9.18 17.58 2.73a44.91 44.91 0 0 0-1.86 5.36c-.08.26-.15.53-.2.8-1.66 6.64-.56 10.66.68 12.88a9 9 0 0 0 .72 1.09 5.5 5.5 0 0 0 1.2 1.22l2.23 14.13z" class="H"/><path d="M203.04 254.43c-.94 2.26.46-1.85 0 0-3.76 2.68-12.63 10.3-17.62 10.3-3.36 0-4.37-.6-7.26-1.9a46.9 46.9 0 0 0 1.86-8.39c0 0 29.88-16.48 23.02 0z" class="B"/><path d="M210.63 240.55c.007 11.783-8.89 21.666-20.6 22.9a21.37 21.37 0 0 1-2.41.13c-12.703 0-23-10.297-23-23s10.297-23 23-23 23 10.297 23 23z" class="H"/><path d="M213.92 342.6l-3.27 8.56-6.84.25c-14 .45-45 1-46.4-2.58a8.67 8.67 0 0 1-.48-2.84c-.2-5.5 2.38-13.95 2.38-13.95l1.48-17.63c0-.73-1.27-12.62-1.27-12.62l2.53-9.5 7.08-5s3.17 4.86 5.07 5.28 4.44 2.75 4.44 2.75 6.22 3.8 8.23 1.68 17.64-11.4 17.64-11.4l8.24 9.08z" class="B"/><path d="M213.92 343.88l-3.27 8.56-6.84.24h-.4l-6.07.16c-11.16.25-26.55.32-34.58-.85-3-.44-5-1-5.33-1.9a7 7 0 0 1-.38-1.57 12.58 12.58 0 0 1-.1-1.27c-.2-5.5 2.38-14 2.38-14l1.48-17.64c0-.74-1.27-12.57-1.27-12.57l2.53-9.5 7.08-4.96a31.92 31.92 0 0 0 2.43 3.19 6.36 6.36 0 0 0 2.64 2.08c1.9.43 4.44 2.75 4.44 2.75s6.22 3.8 8.23 1.7c1.54-1.62 11-7.43 15.42-10.08l2.22-1.33 1.1 1.23 7.13 7.86z" fill="#fff"/><path d="M102.4 256l-9.2 6.45-.3-3.06c4.54-1.9 7.3-6.15 8.1-7.5l1.4 4.12z" class="B"/><path d="M134.7 277.87l-2-.52s-3.28 3.48-5.18 3.9-5.9 3.07-5.9 3.07l-4.65 3.7s-3.5.53-2.43-1.9-1.9-5.5-1.9-5.5-5.9-12.15-5.9-14.68-4.86-13.2-4.86-13.2-6.13 11.93-17.32 8.13c0 0 8.13 18.27 8.34 22.8s5.6 17.22 5.6 17.22 2 9.4 12.88 8.87c0 0 15 2.8 18.27 0s6.23-5 7.82-5.3a6.19 6.19 0 0 0 2.95-2.11V289.8z" class="D"/><path d="M115.9 289.8s2.64 9.82 1 10.88zm87.9 62.88c-14 .45-45 1-46.4-2.57a8.67 8.67 0 0 1-.48-2.84l45.9 2.42zm3.47 88.12l-2.05 5.56c-5.83-.36-13.55-.73-20.88-.78l-7.53.08a56.41 56.41 0 0 0-12.31 1.37 32.48 32.48 0 0 1-11 1.41l-1.6-6.27 25.64-1.8.77-5.37z" class="B"/><path d="M219.62 402.18l-1.8 3.8-.57 2.93c-.68 3.86-1.7 10.85-1.34 16.4.54 8.13-1.16 20.48-1.16 20.48s-38.86-3.27-50.26 0-17 0-17 0 1.37-12.25-2-18.58c-2.32-4.34-3.94-23.6-4-36.25 0-5.85.3-10.28 1-11.17 2.32-2.86 12.25-31.37 12.25-31.37l48.04 2.53.57 1.75z" class="G"/><use xlink:href="#M" class="L"/><use xlink:href="#M" class="B"/><path d="M127.27 292.53a15.17 15.17 0 0 0 6 3.12 3.9 3.9 0 0 1-1.77-.83l-3.55-2.73c-.94-.74-2.13-2-3.3-2.27a18.21 18.21 0 0 0 2.62 2.71zm.26 4.45a7.35 7.35 0 0 1 1.31 2.09 8.4 8.4 0 0 1 .38 2.7 8.52 8.52 0 0 1-.47 3.83l-2.77-6.57-1.52-3.32c-.25-.46-1.82-2.36-1.64-2.76.52-1.15 4.2 3.4 4.7 4.03zm76.14 36.44a8.84 8.84 0 0 0 5-2.31c-2.8.35-5.46 1.45-8.23 2a12.23 12.23 0 0 1-7.67-.7c3.15 1.58 7.48 1.63 10.9 1zm-7.93-19.32a1.89 1.89 0 0 1-1.43-.36q-3.16-1.8-6.24-3.78a37.85 37.85 0 0 1-6.1-4.22c4.2 3.8 8.1 7 13.77 8.36zm5.86 22.4a13.42 13.42 0 0 0 3.29-.26 4.45 4.45 0 0 0 2.71-1.78 1.53 1.53 0 0 0-1.15.18 19.42 19.42 0 0 1-10.6 1.27c1.7.73 3.92.58 5.75.6zm-20 49.02a33.89 33.89 0 0 1-6.75 1.33 41.43 41.43 0 0 1-5.34-.1l-12.98-.83c-.5 0-2.6 0-1.57-1 .52-.5 3.4-.18 4.15-.2l4.3-.08 8.6.18q4.82.2 9.6.7zm-10.02 4.28c-1.47-.06-3.36.82-4.87 1a32.07 32.07 0 0 1-5.09.21 28.64 28.64 0 0 1-9.83-2l19.8.8zm-18.5 4.53a15.51 15.51 0 0 1 1.89.51c3.64 1.05 7.52.13 11.2-.78-.92 1.38-2.63 2-4.25 2.36a20 20 0 0 1-8.29.3c-.87-.17-3-.48-3.48-1.38-.66-1.33 2.13-1.14 2.94-1zm20.45 6.8a30.66 30.66 0 0 1 3.23.84c4.1 1 8.36-.38 12.48-1.32a57.73 57.73 0 0 1 15.11-1.4c-.9 0-2.35.8-3.24 1.07-1.17.35-2.35.67-3.53 1a71 71 0 0 1-7.06 1.38 72.31 72.31 0 0 1-14.48.63c-2.2-.12-6 .1-7.94-1a8.78 8.78 0 0 1 5.43-1.2zm1.53-130.24s.2 9.73-1.38 14.16l-2.1 6.8-2.72 9.47-1.3 4.65s-3.57 29.06-4.5 42.9v.72a31.49 31.49 0 0 1-.26 2.43c-2.06 13.75-13.92 34.95-17.9 36.65a12 12 0 0 0-3.35 2.3c0-5.85.3-10.28 1-11.17 2.32-2.86 12.25-31.37 12.25-31.37l2.26.12a12.58 12.58 0 0 1-.1-1.27c-.2-5.5 2.38-14 2.38-14l1.48-17.64c0-.74-1.27-12.57-1.27-12.57l2.53-9.5 4.87-3.4c.6-7.33 2.05-16.24 5.5-18.66a13.64 13.64 0 0 0 4-5.09c.7.1-.56-.5-.56-.5z" class="B"/><path d="M176.92 265.44a6.32 6.32 0 0 0-5.35.61c-2.43 1.68-7.18 1.58-8.45 1.26s-14.47-2-15.52-1.58-3.17-1.48-4.54 1.05-2 3.9-3.38 4.55-3.8 2.64-3.5 3.06-3.48 3-3.48 3l7.7 25s-5 31.68-7.4 34.42-24 38.34-16.26 44.68a155.94 155.94 0 0 0 19.32 13c.85.42 3.9-5.28 8.14-7.08s17.32-25.6 18.18-39.1 4.54-43.62 4.54-43.62 4.54-16.48 6.13-20.9 1.33-14.17 1.33-14.17z" class="D"/><path d="M219.62 402.18l-1.8 3.8-.57 2.93a1.66 1.66 0 0 1-.91-.39c-2.64-2.12-18.17-18.06-18.9-32.22a255.41 255.41 0 0 1-.12-23.44l.1-2.2s12-14.58 10.66-19.75-4.54-32.85-4.54-32.85l-1.27-9.76-1.9-14.86 2 .46a5.5 5.5 0 0 0 1.2 1.22l2.06 13.05 7.13 7.86 1.16 47.84-3.27 8.56-6.84.24h-.4z" class="B"/><path d="M226.28 323.18s-3-1.16-3.17 0-.74 3.7-.74 3.7.52 6.13-1.7 8.56-2.57 12.67-2.57 12.67-3.55 10.14-1.87 13.3c.6 1.15 1.56 6.92 2.5 13.82l1.74 13.4 1.67 14.4s-1.9 7-4.54 4.86-18.17-18.08-18.9-32.2c-.52-9.95-.3-18.58-.14-22.84l.14-2.83s12-14.57 10.67-19.74-4.54-32.85-4.54-32.85l-.56-4.27-.6-4.6-2.04-15.74c.34.07 12.2 2.75 13.75 4.3s11.2 3.8 11.2 3.8a8.47 8.47 0 0 1 6 6.16c.1.3.16.6.23.92 1.27 6.13.85 6.86 1.7 7.92s-8.24 27.27-8.24 27.27z" class="D"/><path d="M220.5 388.62c-4.34-.84-10.73-2.85-10.6-7.25.14-4.13 5.1-5.6 8.85-6.14.65 4.3 1.2 9.06 1.74 13.4z" class="B"/><path d="M233.88 386.44c-.17.37-.9.7-1.84 1a48.26 48.26 0 0 1-7 1.14c0 0-14.68-1.16-14.47-7.8.15-4.78 6.78-6 10.5-6.33 1.46-.13 2.48-.1 2.48-.1s10.96 10.74 10.32 12.1z" class="H"/><path d="M233.88 386.44c-.17.37-.9.7-1.84 1-3.83-5.12-9.17-11.7-11.78-12.27 0 0 .3-.3.8-.73 1.46-.13 2.48-.1 2.48-.1s11 10.74 10.35 12.1z" class="B"/><path d="M230.18 295.3l4.33.63a74.44 74.44 0 0 0 5.18 7.92 8.61 8.61 0 0 1 1.9 5.07s6.34 9.4 8.34 10.46 5.07 8.24 5.07 8.24 5 3.27 5 7a61 61 0 0 0 .95 9.18c.1.53-.74 7.08-2.86 10.35s-4.22 10.56-4.1 11.83-5.92 8-7.6 10.14a42.67 42.67 0 0 0-3.69 6.23l-5.6 10.56s-11.83-17.42-16.16-18.37c0 0 4.86-4.65 7.3-5.5s4.75-7.82 4.86-9.4 2.2-6.87 4.43-7.82 3.38-1.9 2.43-3.38 0-4.33 0-4.33-6.23-8.24-7.08-13-6.54-7.92-6.54-7.92l-3.28-8z" class="D"/><path d="M245.9 334.72a13.69 13.69 0 0 1 8.53-3.23c-2 .35-4.12.78-5.58 2.18a12.74 12.74 0 0 0-1.54 2c-.5.72-4.58 5.9-5.23 5.1-.97-1.24 3-5.34 3.82-6.04zm-9.57-5a3.64 3.64 0 0 0 3-2.13 12 12 0 0 0 .94-3.75 55.58 55.58 0 0 1 1.31-6.41 4.08 4.08 0 0 0 .21-1.34 3.79 3.79 0 0 0-.39-1.29 9.2 9.2 0 0 0-.92-1.92c-.8.9-1 2.88-1.33 4q-.58 2.16-1.1 4.32l-1.7 8.52zm-3.73-42.62a9.42 9.42 0 0 1-1.46 1.5c-1.7 1.37-4 2.53-4.24 4.7a5.17 5.17 0 0 1-.25 2.09c-.55.94-1.9.87-3 .68a5.28 5.28 0 0 1-2.53-.93c-1.13-1-1.24-2.7-2.1-3.9a5.34 5.34 0 0 0-4.28-1.92c-1.62-.05-3.23.3-4.84.4a13.41 13.41 0 0 1-3.1-.21l-1-.2a13.12 13.12 0 0 1-2.11-.72 10.64 10.64 0 0 1-1-.48 13.59 13.59 0 0 1-3-2.07c-1.58-1.46-2.9-3.45-2.76-5.6a34.46 34.46 0 0 1 .9-3.84c.65-3.73-1.83-7.26-4.52-9.93l-3.28-3.17a15.82 15.82 0 0 1-3.87-5.5 16.76 16.76 0 0 1-.69-6.88 46.79 46.79 0 0 0 .21-7.09c-.8-8.4-8-14.83-15.14-18.34l-.3-.16a23 23 0 1 1 31 33.68c-.08.26-.15.53-.2.8-1.66 6.64-.56 10.66.68 12.88.34.07 12.2 2.75 13.75 4.3s11.2 3.8 11.2 3.8a8.47 8.47 0 0 1 5.96 6.16z" class="B"/><path d="M168.63 219.35c.47-.54 1.2-.82 1.67-1.35 1.5-1.62 0-4.27.55-6.4.6-2.38 3.5-3.42 5.94-3.16s4.72 1.37 7.15 1.64c3.78.43 7.44-1.2 11.13-2.17s8.14-1 10.7 1.8 2.36 7.64 5.52 9.7c1.46.94 3.3 1 4.88 1.75a10.12 10.12 0 0 1 4.13 3.95 20.69 20.69 0 0 1 3.11 13.23c-.26 2.5-1 4.94-1.28 7.44a21.7 21.7 0 0 0 .51 7.78c.67 2.63 2.1 5.4 4.7 6.22a7.38 7.38 0 0 1 1.75.6c1.5.92 1.3 3.12.92 4.83l-1.6 7.05c1.48 1.13 3.77.64 5.2 1.83a4.23 4.23 0 0 1 1.21 1.9 10.39 10.39 0 0 1-3.1 11.34c-1.7 1.38-4 2.53-4.24 4.7a5 5 0 0 1-.25 2.08c-.55.94-1.9.87-3 .68a5.18 5.18 0 0 1-2.52-.93c-1.14-1-1.24-2.7-2.1-3.9a5.34 5.34 0 0 0-4.28-1.92c-1.63-.05-3.23.3-4.85.4a14.27 14.27 0 0 1-10.21-3.69 7.4 7.4 0 0 1-2.77-5.6 37 37 0 0 1 .9-3.85c.65-3.72-1.83-7.26-4.5-9.92s-5.84-5.13-7.15-8.68c-1.64-4.4 0-9.3-.5-14-.8-8.4-8-14.83-15.13-18.33-1.63-.8-4.35-2.88-2.5-5z" class="K"/><path d="M225.1 291.87c-1.13-1-1.23-2.7-2.1-3.9a5.38 5.38 0 0 0-4.29-1.91c-1.62-.05-3.22.3-4.84.4a14.32 14.32 0 0 1-10.21-3.64c-1.6-1.46-2.9-3.46-2.77-5.6a36.83 36.83 0 0 1 .9-3.84c.65-3.73-1.83-7.26-4.52-9.93s-5.83-5.13-7.15-8.68c-1.63-4.4 0-9.3-.48-14-.8-8.4-8-14.84-15.14-18.34-1.67-.82-4.4-2.9-2.53-5 .47-.54 1.18-.8 1.67-1.34 1.5-1.62 0-4.28.55-6.42a3.39 3.39 0 0 1 .54-1.17 4.57 4.57 0 0 0-3.89 3.07c-.53 2.14.94 4.8-.55 6.42-.48.53-1.2.8-1.67 1.34-1.86 2.12.86 4.2 2.54 5 7.17 3.5 14.33 9.94 15.13 18.34.44 4.66-1.15 9.57.5 14 1.3 3.55 4.46 6 7.15 8.68s5.16 6.2 4.5 9.93a37.44 37.44 0 0 0-.9 3.84c-.12 2.15 1.18 4.15 2.77 5.6a14.27 14.27 0 0 0 10.21 3.69c1.62-.08 3.22-.44 4.85-.4a5.36 5.36 0 0 1 4.28 1.91c.86 1.22 1 2.95 2.1 3.9a5.18 5.18 0 0 0 2.52.93c1.08.2 2.44.27 3-.68a2.36 2.36 0 0 0 .24-1.24 4.86 4.86 0 0 1-2.42-.96z" class="B"/></svg>