<svg xmlns="http://www.w3.org/2000/svg" xmlns:xlink="http://www.w3.org/1999/xlink" width="847" height="714" viewBox="0 0 846.02 713.53"><path d="M93.483 679.876c0 22.47-13.356 30.314-29.834 30.314q-.573 0-1.143-.013a48.69 48.69 0 0 1-2.267-.104c-14.87-1.052-26.424-9.3-26.424-30.197 0-21.625 27.634-48.912 29.7-50.932l.004-.004.12-.116s29.834 28.583 29.834 51.052z" fill="#419274"/><path d="M62.563 706.752l10.912-15.247-10.94 16.92-.03 1.75-2.267-.104 1.298-24.8L50.57 668.3l11 15.37.025.45.89-16.985-9.388-17.528 9.503 14.547.93-35.332v.116l-.155 27.767 9.347-11.008-9.385 13.4-.247 15.207 8.727-14.594-8.763 16.832-.138 8.454 12.67-20.313-12.717 23.263z" fill="#3f3d56"/><path d="M733.09 394.388c0 176.18-79.992 315.163-178.5 319-128.463 5.003-296.357-123.086-178.5-319 90.818-150.967 79.917-319 178.5-319s178.5 142.82 178.5 319z" fill="#f2f2f2"/><path fill="#419274" d="M374.947 488.05H629.46v221.025H374.947z"/><path fill="none" stroke="#3f3d56" stroke-miterlimit="10" stroke-width="2" d="M0 709.074h846.02"/><path d="M558.717 0a24.37 24.37 0 0 0-9.779 46.688 21.58 21.58 0 0 1 .424-5.591l3.133-13.282a9.3 9.3 0 0 1-.783-3.851c0-3.6 2.1-6.3 4.7-6.3 2.22 0 3.285 1.664 3.285 3.655 0 2.23-1.425 5.56-2.154 8.648a3.77 3.77 0 0 0 .74 3.317 3.76 3.76 0 0 0 3.1 1.37c4.612 0 7.723-5.928 7.723-12.955 0-5.34-3.6-9.333-10.138-9.333a11.55 11.55 0 0 0-8.504 3.26c-2.268 2.205-3.53 5.247-3.494 8.4-.073 1.736.5 3.438 1.6 4.775a1.19 1.19 0 0 1 .348 1.36l-.5 1.958c-.042.267-.2.497-.452.618a.83.83 0 0 1-.766-.01c-3.405-1.392-4.993-5.113-4.993-9.3 0-6.918 5.84-15.218 17.415-15.218 9.3 0 15.425 6.733 15.425 13.956 0 9.562-5.32 16.697-13.15 16.697-2.632 0-5.102-1.425-5.95-3.035l-1.72 6.7c-.563 1.848-1.387 3.607-2.448 5.22a24.37 24.37 0 0 0 29.081-33.475A24.37 24.37 0 0 0 558.717 0zm240.56 176.223a21.29 21.29 0 0 1-6.048 1.664 10.57 10.57 0 0 0 4.634-5.831c-2.066 1.23-4.33 2.095-6.7 2.556a10.53 10.53 0 0 0-18.22 7.201 10.31 10.31 0 0 0 .272 2.404c-8.475-.42-16.37-4.427-21.712-11.02-2.797 4.82-1.363 10.985 3.274 14.076-1.68-.04-3.322-.493-4.786-1.316v.13a10.54 10.54 0 0 0 8.452 10.334 10.6 10.6 0 0 1-2.774.37 9.9 9.9 0 0 1-1.98-.196 10.55 10.55 0 0 0 9.844 7.321 21.11 21.11 0 0 1-13.086 4.514 21.35 21.35 0 0 1-2.513-.152 29.44 29.44 0 0 0 16.12 4.764c19.395 0 30-16.067 30-30 0-.457-.01-.914-.033-1.36a21.44 21.44 0 0 0 5.254-5.461zM393.922 31.016h-37.16a2.31 2.31 0 0 0-2.306 2.306v37.16a2.31 2.31 0 0 0 2.306 2.306h18.58V56.253h-4.993V50.16h4.993v-4.503c0-5.395 3.742-8.332 8.56-8.332 2.306 0 4.786.174 5.363.25V43.2h-3.84c-2.622 0-3.122 1.24-3.122 3.068v3.883h6.244l-.816 6.092h-5.428v16.534h11.618a2.31 2.31 0 0 0 2.306-2.306V33.32a2.31 2.31 0 0 0-2.306-2.306zm4.686 154.676a8.73 8.73 0 0 1 8.702 8.702V211.8a8.73 8.73 0 0 1-8.702 8.702h-17.405a8.73 8.73 0 0 1-8.702-8.702v-17.405a8.73 8.73 0 0 1 8.702-8.702h17.405m0-3.48h-17.405a12.22 12.22 0 0 0-12.183 12.183V211.8a12.22 12.22 0 0 0 12.183 12.183h17.405a12.22 12.22 0 0 0 12.183-12.183v-17.405a12.22 12.22 0 0 0-12.183-12.183zm2.6 12.182a2.61 2.61 0 1 1 2.611-2.611c.002.693-.273 1.358-.763 1.848s-1.155.764-1.848.763zm-11.313 1.74a6.96 6.96 0 1 1-6.962 6.962 6.97 6.97 0 0 1 6.962-6.962m0-3.48c-4.224 0-8.032 2.544-9.648 6.446s-.723 8.394 2.264 11.38 7.478 3.88 11.38 2.264 6.446-5.424 6.446-9.648a10.45 10.45 0 0 0-10.443-10.443zm312.68-182.142H667.73c-.905-.044-1.8.275-2.46.885s-1.068 1.462-1.108 2.367v34.93a3.68 3.68 0 0 0 3.568 3.58h34.842a3.49 3.49 0 0 0 3.35-3.579v-34.93a3.2 3.2 0 0 0-3.339-3.252zm-25.476 34.8h-5.983v-18.6h5.983zm-2.785-21.43h-.044a3.25 3.25 0 0 1-3.23-3.264c.007-1.794 1.46-3.242 3.253-3.242s3.247 1.45 3.253 3.242-1.44 3.252-3.23 3.264zm24.65 21.43H693V35.15c0-2.437-.87-4.1-3.035-4.1-1.387.012-2.616.897-3.068 2.208a4.03 4.03 0 0 0-.207 1.468V45.32h-5.983v-18.6h5.983v2.6c1.1-1.92 3.18-3.08 5.395-3.024 3.927 0 6.897 2.6 6.897 8.17z" fill="#3f3d56"/><path d="M537.446 268.12s42.346 1.15 49.34 3.696 10.12 20.74 10.12 20.74l-32.88 10.334-24.592-1.393-18.508 1.308 10.334-27.065z" fill="#2f2e41"/><use xlink:href="#B" fill="#9f616a"/><use xlink:href="#B" opacity=".1"/><path fill="#9f616a" d="M654.23 568.843l-38.138 50.577 26.027 15.196 35.822-58.61-23.71-7.164z"/><path d="M627.478 620.273s-14.044-16.32-13.42-12.68-9.993 34.5-.114 37.485 94.6 10.903 95.766 1.336-25.274-16.262-25.274-16.262-15.708-15.096-19.2-13.56-37.77 3.682-37.77 3.682z" fill="#2f2e41"/><path fill="#9f616a" d="M645.673 617.145l30.463 51.9 23-13.32-30.72-42.49-22.744 3.91z"/><g fill="#2f2e41"><path d="M693.762 493.674l-9.04 12.793s-43.1 59.86-38.522 64.692 23.64 23.1 33.334 19.56S723.67 526 723.67 526l-8.984-35.92z"/><path d="M508.1 481.563s9.652 18 34.116 24.108 50.023 18.565 50.932 18.408 3.483-1.535 4.108 2.104 7.335 9.98 7.335 9.98 27.023 91.83 37.343 91.928 31.53-7.292 31.97-10.178-31.6-96.662-31.913-98.48l-3.753-21.834 46.327 7.96c3.952 1.194 39.105 20.44 39.105 20.44s35.836-25.83 2.317-51.913-91.132-45.218-91.132-45.218l-20.67-5.814-18.013-1.075-2.652-10.17-42.662 2.46-44.52 18.892z"/></g><circle cx="564.405" cy="242.411" r="33.232" fill="#9f616a"/><path d="M534.34 269.12l3.997-.687s7.22 27.795 29.55 32.386c0 0 11.02-13.2 10.55-15.428s8.727-14.11 13.617-7.458-1.194 123.84 2.914 125.945 12.92 4.336 5.828 12.11-35.267 18.238-41.508 14.627-18.99-34.2-24.507-44.493-14.343-45.303-14.343-45.303-11.273-38.338-4.336-47.023 18.238-24.677 18.238-24.677z" fill="#d0cde1"/><path d="M566.145 413.4a189.57 189.57 0 0 1-3.807 24.268c-1.63 6.508-3.527 10.437-5.693 10.27-5.526-.413-8.037 7.7-9.332 17.035-1.384 9.913-1.384 21.22-2.143 25.217-1.005 5.28-7.434 9.3-20.283 8.127a90.66 90.66 0 0 1-22.348-5.481c-17.347-6.307-16.834-57.455-13.93-95.4 1.775-23.263 4.443-41.582 4.443-41.582s-5.27-15.717-6.954-26.5a35.21 35.21 0 0 1-.502-5.95c.257-9.4 17.436-34.84 27.818-50.68 10.393-15.84 24.57-4.22 24.57-4.22l-4.934 14.9s7.647 11.8 7.702 23.03 18.307 19.334 24.86 24.77c4.12 3.416 4.02 49.016.536 82.203zm14.43-139.57s1.198 1.416 6.68.725c6.576-.828 15.618 1.447 17.72 7.726 3.852 11.514 14.713 58.352 14.713 58.352s4.52 53.548 6.553 65.375 1.024 22.303 3.028 28.515-19.787-11.585-27.82-9.268-13.192-27.705-12.182-38.18 1.862-21.863-.924-32.623 2.153-39.24 1.97-45.765-17.7-22.97-9.737-34.855z" fill="#2f2e41"/><path d="M604.088 440.244s35.186 19.196 38.553 46.518-47.062-26.455-47.062-26.455zm20.086-19.374s10.782 54.345 27.577 51.458-9.382-54.585-9.382-54.585z" fill="#9f616a"/><path d="M681.694 657.786s-8.6 9.908-10.732 8.4-7.036 19.005-2.615 22.93 21.45 10.363 21.635 16.887 45.857 5.23 47.492-1.606-5.73-22.43-10.903-25.288-24.306-29.155-24.306-29.155-14.984 2.19-20.57 7.832z" fill="#2f2e41"/><path d="M598.484 473.48c-8.16-5.76-30.943-7.19-51.17-8.517-8.874-.57-17.258-1.127-23.7-2.032-6.207-.86-11.788-6.53-16.744-14.98-7.513-12.804-13.585-32.004-18.262-50.534 1.775-23.263 4.443-41.582 4.443-41.582s-5.27-15.717-6.954-26.5c1.188-1.654 2.72-3.032 4.487-4.04 21.455-9.21 41.94 81.422 44.54 95.644.045.234.078.458.112.647 1.26 7.323 14.89 13.585 27.103 16.063 7.524 1.53 14.523 1.63 17.75-.357 8.473-5.202 34.527 15.617 36.503 16.21 1.976.603-6.385 28.264-18.106 19.97z" opacity=".1"/><path d="M490.587 319.726s-15.594 7.363-8.742 41.778 20.655 92.923 41.764 95.85 63.143 2.26 74.87 10.547 20.086-19.375 18.1-19.972-28.032-21.408-36.504-16.205-42.815-3.88-44.848-15.707-22.844-105.66-44.65-96.292zm112.37-16.504l17.138 39.767s1.725-.86 3.73 5.35 2.943 11.67 6.454 15.75 19.134 62.276 19.603 65.005-21.577 12.138-26.503 4.555-20.42-130.43-20.42-130.43zm-57.458-61.274c1.274-.34 1.46-2.03 1.503-3.348.23-7.055 4.477-14.295 11.23-16.35a18.88 18.88 0 0 1 7.959-.438 30.15 30.15 0 0 1 10.778 3.596c1.76 1 3.484 2.18 5.48 2.482 1.318.2 7.023 1.858 8.335 2.092 2.885.513 5.566 3.094 8.334 2.134 2.648-.92 3.235-4.348 3.3-7.15.146-6.385-4.7-15.22-8.97-19.97-3.24-3.604-8.118-5.268-12.886-6.133a85.79 85.79 0 0 0-16.853-1.025c-7.63.136-15.474.725-22.355 4.027s-12.66 9.873-13 17.5c-.07 1.588.095 3.183-.038 4.768-.326 3.865-2.378 7.356-3.34 11.113-1.392 5.575-.36 11.478 2.84 16.25 2.554 3.758 6.568 7.157 6.42 11.7l5.537-5.737a4.55 4.55 0 0 0 1.352-5.556l-1.96-7.645a6.9 6.9 0 0 1-.17-4.255c2.1-5.192 4.372 2.515 6.496 1.948z" fill="#2f2e41"/><path d="M292.583 468.934c0 105.95-62.985 142.942-140.68 142.942S11.22 574.883 11.22 468.934s140.68-240.732 140.68-240.732 140.68 134.784 140.68 240.732z" fill="#f2f2f2"/><path fill="#3f3d56" d="M146.777 595.67l1.44-88.67 59.96-109.697-59.735 95.787.647-39.87 41.326-79.364-41.154 68.814 1.165-71.707 44.252-63.184-44.07 51.908.728-131.485-4.574 174.062.375-7.18-44.99-68.867 44.27 82.65-4.192 80.085-.125-2.126-51.867-72.472 51.7 79.98-.524 10.016-.094.15.043.822-10.636 203.182h14.2l1.705-104.948 51.583-79.785-51.455 71.896z"/><defs ><path id="B" d="M539.273 254.223s2.786 10.76-3.397 18.38 26.582 34.77 26.582 34.77l17.285-2.97s-3.8-33.064 1.308-41.437-41.778-8.742-41.778-8.742z"/></defs></svg>